<?xml version="1.0" standalone="no"?>
<!DOCTYPE svg PUBLIC "-//W3C//DTD SVG 20010904//EN"
 "http://www.w3.org/TR/2001/REC-SVG-20010904/DTD/svg10.dtd">
<svg version="1.0" xmlns="http://www.w3.org/2000/svg"
 width="1200.000000pt" height="1200.000000pt" viewBox="0 0 1200.000000 1200.000000"
 preserveAspectRatio="xMidYMid meet">
<metadata>
Created by potrace 1.11, written by Peter Selinger 2001-2013
</metadata>
<g transform="translate(0.000000,1200.000000) scale(0.100000,-0.100000)"
fill="#000000" stroke="none">
<path d="M7887 8694 c-1 -1 -31 -4 -67 -8 -116 -11 -162 -21 -280 -59 -52 -17
-98 -30 -102 -29 -5 1 -8 -2 -8 -6 0 -5 -18 -15 -40 -22 -22 -7 -40 -17 -40
-22 0 -4 -3 -7 -7 -6 -12 3 -217 -113 -233 -131 -3 -3 -27 -24 -55 -46 -80
-63 -176 -165 -245 -260 -107 -147 -216 -290 -222 -293 -5 -2 -8 -10 -8 -18 0
-8 -4 -14 -10 -14 -5 0 -10 -5 -10 -10 0 -6 -12 -24 -27 -41 -16 -17 -39 -47
-53 -67 -26 -38 -134 -185 -175 -237 -71 -93 -95 -126 -95 -134 0 -5 -7 -11
-15 -15 -8 -3 -15 -10 -15 -15 0 -5 -9 -20 -20 -33 -11 -12 -61 -79 -112 -148
-50 -69 -96 -126 -100 -128 -4 -2 -8 -8 -8 -12 0 -7 -97 -140 -163 -225 -4 -5
-58 -77 -119 -160 -61 -82 -138 -187 -172 -232 -33 -44 -70 -93 -81 -108 -106
-146 -246 -333 -259 -347 -9 -10 -16 -21 -16 -26 0 -4 -10 -18 -23 -32 -12
-14 -34 -41 -47 -60 -13 -19 -29 -40 -35 -47 -30 -35 -35 -43 -35 -47 0 -3 -7
-14 -15 -23 -47 -58 -215 -286 -215 -293 0 -5 -3 -10 -8 -12 -4 -1 -56 -68
-114 -148 -59 -80 -111 -149 -116 -155 -15 -19 -137 -183 -152 -205 -8 -12
-20 -28 -25 -34 -6 -6 -22 -27 -35 -46 -13 -19 -27 -37 -30 -40 -3 -3 -17 -21
-32 -41 -64 -86 -198 -140 -288 -117 -49 13 -99 37 -140 67 -59 44 -182 173
-240 251 -30 41 -57 77 -60 80 -3 3 -32 41 -65 85 -32 44 -63 85 -67 90 -5 6
-29 37 -53 70 -25 33 -48 65 -53 70 -52 68 -102 136 -102 141 0 3 -11 15 -25
28 -14 13 -25 26 -25 30 0 6 -57 83 -70 96 -3 3 -17 21 -30 40 -13 19 -27 37
-30 40 -3 3 -52 68 -110 145 -57 77 -108 142 -112 143 -4 2 -8 8 -8 13 0 5 -7
17 -15 26 -8 10 -62 81 -120 158 -57 77 -108 145 -112 150 -5 6 -32 40 -61 77
-28 37 -52 70 -52 73 0 4 -6 12 -13 20 -6 7 -19 21 -27 32 -12 15 -388 515
-412 548 -4 6 -21 26 -38 46 -16 20 -30 41 -30 47 0 6 -4 12 -8 14 -5 2 -22
21 -38 43 -16 23 -35 47 -42 55 -12 15 -34 44 -102 137 -19 26 -37 50 -40 53
-3 3 -25 32 -50 65 -25 33 -49 64 -53 70 -4 5 -41 55 -82 110 -41 55 -78 105
-83 110 -4 6 -48 64 -97 130 -50 66 -92 122 -95 125 -3 3 -17 21 -30 40 -13
19 -27 37 -30 40 -3 3 -14 16 -23 30 -62 91 -184 178 -291 206 -60 16 -182 18
-246 4 -53 -12 -122 -40 -132 -55 -4 -5 -8 -6 -8 -2 0 4 -12 -4 -27 -18 -15
-14 -33 -25 -40 -25 -7 0 -13 -3 -13 -7 0 -5 -20 -28 -45 -53 -24 -25 -44 -49
-45 -54 0 -5 -6 -17 -13 -25 -61 -72 -89 -280 -54 -399 17 -56 45 -121 62
-139 16 -18 98 -127 227 -303 18 -25 37 -49 41 -55 5 -5 40 -53 79 -105 38
-52 79 -105 89 -118 10 -12 19 -25 19 -29 0 -3 7 -13 15 -22 9 -9 37 -45 63
-81 26 -36 50 -66 54 -68 5 -2 8 -8 8 -13 0 -6 5 -15 10 -22 32 -37 50 -62 90
-117 25 -34 65 -88 90 -120 25 -32 85 -113 134 -180 49 -67 95 -128 103 -135
7 -8 13 -16 13 -19 0 -4 139 -193 178 -241 4 -5 19 -26 32 -45 14 -19 30 -42
37 -50 6 -8 51 -67 98 -130 47 -63 91 -122 98 -130 7 -8 20 -28 30 -43 10 -16
25 -36 32 -45 8 -9 84 -111 170 -227 85 -115 164 -221 175 -233 11 -13 20 -27
20 -30 0 -4 13 -21 28 -39 15 -17 50 -63 77 -102 28 -39 53 -70 58 -71 4 0 7
-4 7 -10 0 -5 32 -51 70 -102 39 -51 79 -104 89 -118 11 -14 37 -50 60 -80 22
-30 44 -59 48 -65 4 -5 40 -53 78 -105 38 -52 73 -99 78 -105 21 -29 64 -86
82 -111 137 -192 276 -317 480 -430 97 -54 126 -68 138 -66 4 1 7 -3 7 -10 0
-6 3 -8 7 -5 3 4 11 3 17 -2 37 -30 270 -88 378 -95 31 -2 60 -6 65 -8 9 -5
103 -2 208 6 69 6 90 9 150 23 17 4 35 7 40 8 43 4 214 65 287 102 27 13 50
23 53 23 3 0 11 4 18 10 6 5 53 36 102 69 50 33 126 95 170 139 89 90 81 81
153 177 28 39 58 77 67 86 8 9 15 20 15 25 0 5 8 17 18 25 9 9 42 51 72 93 30
42 59 76 63 76 5 0 6 4 3 9 -4 5 -3 11 2 13 4 1 57 69 117 151 61 81 224 299
363 485 139 185 260 346 268 357 145 196 179 241 186 243 4 2 8 10 8 17 0 7 3
15 8 17 4 2 27 30 51 63 25 33 48 62 53 63 4 2 8 9 8 15 0 7 16 29 35 51 19
21 35 41 35 45 0 3 10 18 23 33 12 14 29 36 37 48 8 12 20 28 25 34 6 6 55 72
110 146 54 74 105 141 112 148 7 7 13 16 13 20 0 4 13 21 28 39 15 17 45 57
67 87 22 31 43 56 47 56 4 0 8 7 8 15 0 9 7 18 15 21 8 4 15 10 15 15 0 7 197
275 253 344 4 6 111 150 238 320 271 363 283 378 350 408 123 55 226 37 339
-60 102 -88 240 -232 277 -290 9 -15 20 -30 23 -33 18 -17 70 -90 70 -99 0 -5
4 -11 9 -13 7 -2 77 -93 166 -214 11 -15 30 -40 43 -55 12 -15 22 -30 22 -33
0 -3 8 -14 18 -24 9 -10 24 -29 32 -41 14 -22 23 -33 63 -80 9 -12 17 -24 17
-27 0 -3 17 -27 38 -52 48 -60 46 -58 92 -122 22 -30 50 -68 62 -84 13 -16 34
-45 48 -65 14 -19 37 -48 53 -65 15 -16 27 -35 27 -42 0 -8 3 -14 8 -14 4 -1
23 -24 42 -51 19 -28 47 -65 62 -82 15 -18 28 -35 28 -38 0 -3 10 -17 23 -31
12 -14 44 -56 72 -94 27 -38 53 -70 57 -72 4 -2 8 -10 8 -17 0 -7 4 -15 8 -17
5 -1 28 -30 53 -63 24 -33 47 -64 52 -70 4 -5 31 -41 60 -80 28 -38 58 -76 65
-83 6 -7 12 -16 12 -20 0 -4 16 -25 35 -47 19 -22 35 -43 35 -46 0 -3 13 -22
30 -40 16 -19 30 -40 30 -46 0 -7 4 -13 9 -13 4 0 21 -19 37 -42 16 -24 31
-45 34 -48 4 -4 65 -84 133 -175 4 -5 27 -37 52 -70 24 -33 48 -64 52 -70 5
-5 20 -26 33 -45 13 -19 33 -44 43 -55 10 -11 27 -35 38 -52 12 -18 25 -33 30
-33 5 0 9 -5 9 -11 0 -6 17 -33 38 -59 20 -26 46 -60 57 -76 11 -15 37 -49 58
-76 20 -26 37 -52 37 -57 0 -5 3 -11 8 -13 7 -3 85 -102 137 -174 11 -15 38
-51 60 -80 22 -29 47 -62 55 -74 89 -132 192 -208 325 -238 38 -9 188 -9 238
0 96 16 241 117 305 211 101 152 115 346 35 500 -15 28 -27 54 -28 57 0 4 -95
133 -132 180 -6 8 -67 89 -134 180 -68 91 -125 167 -128 170 -4 3 -10 12 -16
21 -21 35 -129 174 -137 177 -4 2 -8 7 -8 12 0 6 -203 281 -369 500 -10 14
-37 50 -60 80 -22 30 -51 68 -63 84 -13 16 -34 45 -48 65 -14 20 -35 47 -47
61 -13 14 -23 28 -23 32 0 3 -6 13 -13 20 -7 7 -24 29 -37 48 -13 19 -27 37
-30 40 -3 3 -57 75 -120 160 -63 85 -118 157 -122 158 -5 2 -8 8 -8 13 0 5 -8
17 -17 28 -10 10 -47 59 -83 107 -36 49 -68 91 -72 92 -5 2 -8 10 -8 17 0 7
-4 15 -8 17 -4 2 -55 66 -113 143 -57 77 -107 145 -112 150 -4 6 -21 28 -37
50 -16 22 -33 45 -38 50 -4 6 -30 41 -57 79 -28 38 -57 76 -65 85 -8 9 -28 37
-45 61 -16 25 -42 58 -57 74 -15 17 -33 41 -40 55 -7 14 -22 34 -33 46 -11 12
-40 50 -65 85 -25 35 -50 68 -55 74 -6 6 -22 27 -35 46 -13 19 -27 37 -30 40
-4 3 -11 12 -16 21 -5 9 -21 32 -36 50 -14 19 -62 81 -105 139 -111 149 -157
200 -242 268 -25 20 -48 40 -51 43 -25 28 -236 146 -315 175 -183 68 -306 92
-501 98 -46 1 -85 2 -87 0z"/>
<path d="M7822 5623 c-65 -12 -182 -59 -236 -95 -10 -7 -40 -32 -65 -55 -25
-24 -49 -43 -53 -43 -5 0 -8 -7 -8 -15 0 -8 -4 -15 -9 -15 -5 0 -24 -24 -42
-52 -18 -29 -36 -55 -39 -58 -4 -3 -16 -32 -28 -65 -78 -213 -54 -446 63 -622
60 -89 232 -233 279 -233 9 0 16 -4 16 -8 0 -17 147 -46 244 -47 85 -2 117 1
196 20 64 16 160 61 207 98 50 39 183 179 183 192 0 3 11 28 26 56 45 90 64
188 60 313 -5 189 -52 303 -184 448 -62 68 -217 158 -297 174 -11 2 -33 7 -50
10 -54 13 -189 11 -263 -3z"/>
</g>
</svg>
