<?xml version="1.0" encoding="UTF-8" standalone="no"?>
<!-- Created with Inkscape (http://www.inkscape.org/) -->

<svg
   xmlns:dc="http://purl.org/dc/elements/1.1/"
   xmlns:cc="http://creativecommons.org/ns#"
   xmlns:rdf="http://www.w3.org/1999/02/22-rdf-syntax-ns#"
   xmlns:svg="http://www.w3.org/2000/svg"
   xmlns="http://www.w3.org/2000/svg"
   xmlns:sodipodi="http://sodipodi.sourceforge.net/DTD/sodipodi-0.dtd"
   xmlns:inkscape="http://www.inkscape.org/namespaces/inkscape"
   version="1.1"
   id="svg2"
   width="1306.6667"
   height="1306.6667"
   viewBox="0 0 1306.6667 1306.6667"
   sodipodi:docname="Message_Plane.svg"
   inkscape:version="0.92.4 (5da689c313, 2019-01-14)">
  <metadata
     id="metadata8">
    <rdf:RDF>
      <cc:Work
         rdf:about="">
        <dc:format>image/svg+xml</dc:format>
        <dc:type
           rdf:resource="http://purl.org/dc/dcmitype/StillImage" />
        <dc:title></dc:title>
      </cc:Work>
    </rdf:RDF>
  </metadata>
  <defs
     id="defs6" />
  <sodipodi:namedview
     pagecolor="#ffffff"
     bordercolor="#666666"
     borderopacity="1"
     objecttolerance="10"
     gridtolerance="10"
     guidetolerance="10"
     inkscape:pageopacity="0"
     inkscape:pageshadow="2"
     inkscape:window-width="1920"
     inkscape:window-height="1057"
     id="namedview4"
     showgrid="false"
     inkscape:zoom="0.51084854"
     inkscape:cx="859.29122"
     inkscape:cy="630.82737"
     inkscape:window-x="1912"
     inkscape:window-y="-8"
     inkscape:window-maximized="1"
     inkscape:current-layer="svg2" />
  <path
     style="fill:#000000;stroke-width:1.33333337"
     d="m 745.9926,1305.5354 c -5.69,-2.1331 -10.7869,-5.9403 -14.0072,-10.4628 -3.9463,-5.542 -19.5346,-70.9624 -73.8644,-309.98974 -46.0828,-202.74425 -61.9268,-270.20731 -63.9254,-272.19283 -0.845,-0.83938 -9.6363,-3.43476 -19.5363,-5.7675 C 519.72301,694.17783 442.3342,676.41126 297.99261,643.60666 22.70224,581.04122 21.45954,580.74514 15.37571,576.27104 6.3309601,569.61946 0.01951978,557.97538 3.978285e-5,547.90422 -0.02006022,537.51835 7.5788501,525.38878 17.17119,520.49514 19.86183,519.12248 63.14736,500.90515 113.36126,480.01218 202.33335,442.99273 581.394,285.6611 627.9926,266.41104 650.32,257.18749 715.998,229.98858 853.326,173.09479 1159.7016,46.166013 1256.2169,6.4904865 1263.326,4.5520065 c 13.0867,-3.56847999 27.4166,-0.36767 33.9751,7.5888705 4.1162,4.993676 9.3582,18.437876 9.3582,24.001076 0,5.63384 -40.489,103.820017 -289.047,700.940907 -191.7284,460.59674 -228.4068,547.02294 -237.2394,559.01224 -1.7608,2.3901 -5.699,5.6198 -8.7516,7.1771 -6.4721,3.3018 -19.7343,4.473 -25.6287,2.2632 z m 35.9412,-179.1192 c 18.885,-44.6857 175.6493,-420.91234 248.0607,-595.33334 118.9988,-286.63862 142.7281,-344.30681 144.0701,-350.12701 0.6631,-2.87591 -65.4449,62.42667 -256.7831,253.65436 l -257.6761,257.52736 22.9655,101.80599 c 38.4485,170.4424 64.4508,282.75694 77.5693,335.05364 6.2799,25.0346 7.6153,29.5257 8.4764,28.5076 0.1963,-0.2321 6.1891,-14.2219 13.3172,-31.0886 z m 45.4578,-694.33335 c 234.1308,-234.42794 297.2247,-298.15406 296.2055,-299.17335 -1.072,-1.07191 -49.9935,19.17664 -588.93782,243.76071 -336.0427,140.03271 -385.08784,160.61317 -387.12102,162.44478 -1.80796,1.62873 23.17808,7.41951 304.45435,70.56036 87.63334,19.67192 159.93409,35.83622 160.66819,35.92066 0.7342,0.0844 97.3631,-95.99649 214.7308,-213.51316 z"
     id="path817"
     inkscape:connector-curvature="0" />
</svg>
