<?xml version="1.0" encoding="UTF-8" standalone="no"?>
<svg
   xmlns:dc="http://purl.org/dc/elements/1.1/"
   xmlns:cc="http://creativecommons.org/ns#"
   xmlns:rdf="http://www.w3.org/1999/02/22-rdf-syntax-ns#"
   xmlns:svg="http://www.w3.org/2000/svg"
   xmlns="http://www.w3.org/2000/svg"
   xmlns:xlink="http://www.w3.org/1999/xlink"
   xmlns:sodipodi="http://sodipodi.sourceforge.net/DTD/sodipodi-0.dtd"
   xmlns:inkscape="http://www.inkscape.org/namespaces/inkscape"
   height="645.773484855"
   viewBox="-360.0 -414.115097149 976.217782649 645.773484855"
   width="976.217782649"
   version="1.1"
   id="svg5681"
   sodipodi:docname="surface_gradient_Plain.svg"
   inkscape:version="0.92.4 (5da689c313, 2019-01-14)">
  <metadata
     id="metadata5687">
    <rdf:RDF>
      <cc:Work
         rdf:about="">
        <dc:format>image/svg+xml</dc:format>
        <dc:type
           rdf:resource="http://purl.org/dc/dcmitype/StillImage" />
        <dc:title></dc:title>
      </cc:Work>
    </rdf:RDF>
  </metadata>
  <defs
     id="defs5685">
    <linearGradient
       inkscape:collect="always"
       id="linearGradient2445">
      <stop
         style="stop-color:#55ff99;stop-opacity:1"
         offset="0"
         id="stop2441" />
      <stop
         style="stop-color:#5599ff;stop-opacity:1"
         offset="1"
         id="stop2443" />
    </linearGradient>
    <linearGradient
       inkscape:collect="always"
       xlink:href="#linearGradient2445"
       id="linearGradient2447"
       x1="113.78033"
       y1="224.34674"
       x2="122.04075"
       y2="-405.17847"
       gradientUnits="userSpaceOnUse" />
  </defs>
  <sodipodi:namedview
     pagecolor="#ffffff"
     bordercolor="#666666"
     borderopacity="1"
     objecttolerance="10"
     gridtolerance="10"
     guidetolerance="10"
     inkscape:pageopacity="0"
     inkscape:pageshadow="2"
     inkscape:window-width="1920"
     inkscape:window-height="1017"
     id="namedview5683"
     showgrid="false"
     inkscape:zoom="0.82284233"
     inkscape:cx="559.3012"
     inkscape:cy="287.58586"
     inkscape:window-x="-8"
     inkscape:window-y="-8"
     inkscape:window-maximized="1"
     inkscape:current-layer="svg5681" />
  <g
     id="g2431"
     style="fill-opacity:1;fill:none;stroke:url(#linearGradient2447)">
    <polyline
       id="polyline5473"
       style="stroke-width:2;stroke:url(#linearGradient2447);fill:none;stroke-opacity:1;fill-opacity:1"
       points="0.00,0.00 25.23,31.12 49.01,59.51 71.39,85.27 92.43,108.48 112.19,129.22 130.73,147.57 148.11,163.62 164.38,177.44 179.61,189.13 193.85,198.76 207.17,206.41 219.61,212.18 231.25,216.13 242.13,218.36 252.33,218.95 261.88,217.97 270.87,215.52 279.33,211.68 287.34,206.52 294.95,200.13 302.23,192.60 309.21,184.00 315.98,174.43 322.58,163.95 329.08,152.66 335.53,140.63 342.00,127.96 348.53,114.72 355.20,100.99 362.05,86.86 369.15,72.41 376.56,57.73 384.33,42.89 392.52,27.98 401.20,13.08 410.42,-1.72 420.24,-16.34 430.71,-30.71 441.91,-44.73 453.88,-58.33 466.68,-71.42 480.38,-83.92 495.03,-95.74 510.69,-106.81 527.42,-117.04 545.28,-126.35 564.33,-134.65 584.62,-141.87 606.22,-147.92" />
    <polyline
       id="polyline5475"
       style="stroke-width:2;stroke:url(#linearGradient2447);fill:none;stroke-opacity:1;fill-opacity:1"
       points="-350.00,-256.20 -324.77,-269.42 -300.99,-280.93 -278.61,-290.81 -257.57,-299.14 -237.81,-305.99 -219.27,-311.47 -201.89,-315.64 -185.62,-318.59 -170.39,-320.41 -156.15,-321.16 -142.83,-320.95 -130.39,-319.84 -118.75,-317.92 -107.87,-315.28 -97.67,-311.99 -88.12,-308.14 -79.13,-303.81 -70.67,-299.08 -62.66,-294.04 -55.05,-288.76 -47.77,-283.33 -40.79,-277.83 -34.02,-272.35 -27.42,-266.96 -20.92,-261.75 -14.47,-256.81 -8.00,-252.20 -1.47,-248.02 5.20,-244.35 12.05,-241.26 19.15,-238.85 26.56,-237.19 34.33,-236.37 42.52,-236.47 51.20,-237.57 60.42,-239.75 70.24,-243.09 80.71,-247.69 91.91,-253.61 103.88,-260.95 116.68,-269.78 130.38,-280.19 145.03,-292.26 160.69,-306.07 177.42,-321.70 195.28,-339.24 214.33,-358.77 234.62,-380.36 256.22,-404.12" />
    <polyline
       id="polyline5477"
       style="stroke-width:2;stroke:url(#linearGradient2447);fill:none;stroke-opacity:1;fill-opacity:1"
       points="0.00,0.00 -14.57,4.09 -28.30,7.27 -41.22,9.57 -53.36,11.02 -64.77,11.67 -75.48,11.53 -85.51,10.65 -94.91,9.06 -103.70,6.79 -111.92,3.88 -119.61,0.36 -126.79,-3.75 -133.51,-8.39 -139.80,-13.55 -145.68,-19.18 -151.20,-25.26 -156.39,-31.75 -161.27,-38.61 -165.90,-45.82 -170.29,-53.34 -174.49,-61.14 -178.53,-69.18 -182.43,-77.43 -186.24,-85.86 -190.00,-94.43 -193.72,-103.11 -197.45,-111.86 -201.22,-120.66 -205.07,-129.47 -209.03,-138.25 -213.13,-146.98 -217.40,-155.62 -221.89,-164.13 -226.62,-172.49 -231.63,-180.65 -236.95,-188.59 -242.62,-196.27 -248.67,-203.67 -255.13,-210.73 -262.05,-217.44 -269.44,-223.76 -277.35,-229.65 -285.81,-235.09 -294.85,-240.03 -304.51,-244.45 -314.82,-248.31 -325.81,-251.57 -337.53,-254.22 -350.00,-256.20" />
    <polyline
       id="polyline5479"
       style="stroke-width:2;stroke:url(#linearGradient2447);fill:none;stroke-opacity:1;fill-opacity:1"
       points="606.22,-147.92 591.65,-132.57 577.92,-118.90 565.00,-106.87 552.85,-96.42 541.44,-87.49 530.74,-80.04 520.71,-74.01 511.31,-69.35 502.52,-66.00 494.30,-63.91 486.61,-63.03 479.42,-63.32 472.71,-64.70 466.42,-67.14 460.54,-70.57 455.02,-74.95 449.83,-80.22 444.94,-86.33 440.32,-93.23 435.93,-100.86 431.73,-109.18 427.69,-118.12 423.79,-127.64 419.97,-137.68 416.22,-148.19 412.50,-159.12 408.77,-170.41 404.99,-182.02 401.15,-193.88 397.19,-205.95 393.09,-218.17 388.81,-230.49 384.33,-242.86 379.59,-255.23 374.59,-267.53 369.26,-279.73 363.59,-291.76 357.55,-303.57 351.08,-315.12 344.17,-326.34 336.78,-337.19 328.87,-347.60 320.41,-357.54 311.37,-366.95 301.71,-375.76 291.40,-383.94 280.40,-391.43 268.69,-398.17 256.22,-404.12" />
    <polyline
       id="polyline5481"
       style="stroke-width:0.2;stroke:url(#linearGradient2447);fill:none;stroke-opacity:1;fill-opacity:1"
       points="0.00,0.00 -14.57,4.09 -28.30,7.27 -41.22,9.57 -53.36,11.02 -64.77,11.67 -75.48,11.53 -85.51,10.65 -94.91,9.06 -103.70,6.79 -111.92,3.88 -119.61,0.36 -126.79,-3.75 -133.51,-8.39 -139.80,-13.55 -145.68,-19.18 -151.20,-25.26 -156.39,-31.75 -161.27,-38.61 -165.90,-45.82 -170.29,-53.34 -174.49,-61.14 -178.53,-69.18 -182.43,-77.43 -186.24,-85.86 -190.00,-94.43 -193.72,-103.11 -197.45,-111.86 -201.22,-120.66 -205.07,-129.47 -209.03,-138.25 -213.13,-146.98 -217.40,-155.62 -221.89,-164.13 -226.62,-172.49 -231.63,-180.65 -236.95,-188.59 -242.62,-196.27 -248.67,-203.67 -255.13,-210.73 -262.05,-217.44 -269.44,-223.76 -277.35,-229.65 -285.81,-235.09 -294.85,-240.03 -304.51,-244.45 -314.82,-248.31 -325.81,-251.57 -337.53,-254.22 -350.00,-256.20" />
    <polyline
       id="polyline5483"
       style="stroke-width:0.2;stroke:url(#linearGradient2447);fill:none;stroke-opacity:1;fill-opacity:1"
       points="25.23,31.12 10.66,34.53 -3.06,37.02 -15.98,38.61 -28.13,39.34 -39.54,39.25 -50.24,38.37 -60.28,36.72 -69.67,34.36 -78.46,31.30 -86.69,27.58 -94.37,23.24 -101.56,18.31 -108.28,12.83 -114.56,6.82 -120.45,0.33 -125.97,-6.62 -131.15,-13.99 -136.04,-21.74 -140.67,-29.85 -145.06,-38.28 -149.26,-46.99 -153.29,-55.95 -157.20,-65.13 -161.01,-74.50 -164.76,-84.01 -168.49,-93.64 -172.22,-103.35 -175.99,-113.12 -179.84,-122.89 -183.80,-132.65 -187.90,-142.35 -192.17,-151.97 -196.66,-161.47 -201.39,-170.81 -206.40,-179.96 -211.72,-188.89 -217.39,-197.57 -223.44,-205.96 -229.90,-214.02 -236.81,-221.72 -244.21,-229.04 -252.11,-235.93 -260.57,-242.36 -269.61,-248.30 -279.27,-253.71 -289.59,-258.56 -300.58,-262.82 -312.30,-266.45 -324.77,-269.42" />
    <polyline
       id="polyline5485"
       style="stroke-width:0.2;stroke:url(#linearGradient2447);fill:none;stroke-opacity:1;fill-opacity:1"
       points="49.01,59.51 34.44,62.34 20.71,64.23 7.79,65.21 -4.35,65.31 -15.76,64.57 -26.47,63.03 -36.50,60.71 -45.90,57.66 -54.69,53.90 -62.91,49.47 -70.60,44.41 -77.78,38.74 -84.50,32.51 -90.79,25.74 -96.67,18.48 -102.19,10.75 -107.38,2.59 -112.26,-5.96 -116.89,-14.87 -121.28,-24.12 -125.48,-33.66 -129.51,-43.45 -133.42,-53.47 -137.23,-63.68 -140.99,-74.05 -144.71,-84.54 -148.44,-95.12 -152.21,-105.76 -156.06,-116.41 -160.02,-127.05 -164.12,-137.64 -168.39,-148.14 -172.88,-158.53 -177.61,-168.77 -182.62,-178.82 -187.94,-188.66 -193.61,-198.23 -199.66,-207.53 -206.12,-216.49 -213.04,-225.11 -220.43,-233.33 -228.34,-241.13 -236.80,-248.46 -245.84,-255.31 -255.50,-261.62 -265.81,-267.38 -276.80,-272.54 -288.52,-277.07 -300.99,-280.93" />
    <polyline
       id="polyline5487"
       style="stroke-width:0.2;stroke:url(#linearGradient2447);fill:none;stroke-opacity:1;fill-opacity:1"
       points="71.39,85.27 56.82,87.61 43.09,88.98 30.17,89.43 18.02,88.99 6.62,87.69 -4.09,85.58 -14.12,82.67 -23.52,79.02 -32.31,74.65 -40.53,69.59 -48.22,63.89 -55.40,57.58 -62.12,50.69 -68.41,43.25 -74.29,35.30 -79.81,26.88 -85.00,18.02 -89.88,8.76 -94.51,-0.88 -98.90,-10.85 -103.10,-21.13 -107.14,-31.67 -111.04,-42.45 -114.85,-53.42 -118.61,-64.55 -122.33,-75.82 -126.06,-87.17 -129.83,-98.59 -133.68,-110.03 -137.64,-121.47 -141.74,-132.85 -146.02,-144.16 -150.50,-155.36 -155.23,-166.41 -160.24,-177.27 -165.57,-187.92 -171.23,-198.31 -177.28,-208.42 -183.75,-218.21 -190.66,-227.64 -198.05,-236.68 -205.96,-245.30 -214.42,-253.46 -223.46,-261.12 -233.12,-268.25 -243.43,-274.82 -254.43,-280.80 -266.14,-286.14 -278.61,-290.81" />
    <polyline
       id="polyline5489"
       style="stroke-width:0.2;stroke:url(#linearGradient2447);fill:none;stroke-opacity:1;fill-opacity:1"
       points="92.43,108.48 77.86,110.40 64.13,111.35 51.21,111.35 39.07,110.45 27.66,108.68 16.95,106.07 6.92,102.67 -2.48,98.50 -11.27,93.60 -19.49,88.00 -27.18,81.75 -34.36,74.87 -41.08,67.40 -47.37,59.37 -53.25,50.83 -58.77,41.80 -63.96,32.32 -68.84,22.42 -73.47,12.15 -77.86,1.53 -82.06,-9.40 -86.09,-20.60 -90.00,-32.04 -93.81,-43.69 -97.56,-55.51 -101.29,-67.47 -105.02,-79.52 -108.79,-91.64 -112.64,-103.79 -116.60,-115.93 -120.70,-128.03 -124.97,-140.06 -129.46,-151.98 -134.19,-163.75 -139.20,-175.34 -144.52,-186.72 -150.19,-197.85 -156.24,-208.69 -162.70,-219.21 -169.62,-229.38 -177.01,-239.16 -184.92,-248.51 -193.38,-257.40 -202.42,-265.80 -212.08,-273.67 -222.39,-280.97 -233.38,-287.67 -245.10,-293.74 -257.57,-299.14" />
    <polyline
       id="polyline5491"
       style="stroke-width:0.2;stroke:url(#linearGradient2447);fill:none;stroke-opacity:1;fill-opacity:1"
       points="112.19,129.22 97.62,130.81 83.90,131.40 70.97,131.04 58.83,129.76 47.42,127.60 36.71,124.58 26.68,120.75 17.29,116.15 8.49,110.80 0.27,104.74 -7.42,98.01 -14.60,90.65 -21.32,82.68 -27.60,74.15 -33.49,65.09 -39.01,55.53 -44.19,45.51 -49.08,35.07 -53.71,24.24 -58.10,13.05 -62.30,1.55 -66.33,-10.23 -70.24,-22.27 -74.05,-34.51 -77.80,-46.93 -81.53,-59.50 -85.26,-72.16 -89.03,-84.90 -92.88,-97.68 -96.84,-110.45 -100.94,-123.19 -105.21,-135.85 -109.70,-148.41 -114.43,-160.83 -119.44,-173.07 -124.76,-185.10 -130.43,-196.88 -136.48,-208.38 -142.94,-219.55 -149.85,-230.38 -157.25,-240.81 -165.16,-250.82 -173.61,-260.36 -182.66,-269.41 -192.32,-277.94 -202.63,-285.89 -213.62,-293.24 -225.34,-299.95 -237.81,-305.99" />
    <polyline
       id="polyline5493"
       style="stroke-width:0.2;stroke:url(#linearGradient2447);fill:none;stroke-opacity:1;fill-opacity:1"
       points="130.73,147.57 116.16,148.90 102.43,149.22 89.51,148.58 77.37,146.99 65.96,144.51 55.25,141.17 45.22,136.99 35.83,132.03 27.03,126.31 18.81,119.87 11.12,112.74 3.94,104.97 -2.78,96.58 -9.07,87.62 -14.95,78.12 -20.47,68.11 -25.65,57.63 -30.54,46.71 -35.17,35.40 -39.56,23.73 -43.76,11.73 -47.79,-0.56 -51.70,-13.11 -55.51,-25.87 -59.26,-38.82 -62.99,-51.91 -66.72,-65.12 -70.49,-78.40 -74.34,-91.72 -78.30,-105.05 -82.40,-118.34 -86.67,-131.57 -91.16,-144.70 -95.89,-157.68 -100.90,-170.49 -106.22,-183.09 -111.89,-195.45 -117.94,-207.52 -124.40,-219.28 -131.31,-230.68 -138.71,-241.69 -146.62,-252.28 -155.07,-262.40 -164.12,-272.03 -173.78,-281.13 -184.09,-289.65 -195.08,-297.58 -206.80,-304.86 -219.27,-311.47" />
    <polyline
       id="polyline5495"
       style="stroke-width:0.2;stroke:url(#linearGradient2447);fill:none;stroke-opacity:1;fill-opacity:1"
       points="148.11,163.62 133.54,164.77 119.81,164.89 106.89,164.03 94.74,162.21 83.33,159.49 72.63,155.89 62.60,151.44 53.20,146.19 44.41,140.17 36.19,133.42 28.50,125.97 21.31,117.87 14.60,109.13 8.31,99.81 2.43,89.94 -3.09,79.55 -8.28,68.69 -13.17,57.38 -17.79,45.66 -22.18,33.57 -26.38,21.15 -30.42,8.43 -34.32,-4.56 -38.14,-17.76 -41.89,-31.16 -45.61,-44.72 -49.34,-58.39 -53.12,-72.14 -56.96,-85.94 -60.92,-99.74 -65.02,-113.52 -69.30,-127.24 -73.78,-140.85 -78.51,-154.33 -83.52,-167.64 -88.85,-180.74 -94.52,-193.60 -100.56,-206.17 -107.03,-218.43 -113.94,-230.34 -121.33,-241.86 -129.24,-252.95 -137.70,-263.58 -146.74,-273.71 -156.40,-283.31 -166.71,-292.34 -177.71,-300.76 -189.42,-308.54 -201.89,-315.64" />
    <polyline
       id="polyline5497"
       style="stroke-width:0.2;stroke:url(#linearGradient2447);fill:none;stroke-opacity:1;fill-opacity:1"
       points="164.38,177.44 149.81,178.48 136.09,178.47 123.16,177.47 111.02,175.50 99.61,172.60 88.90,168.81 78.87,164.16 69.48,158.70 60.68,152.45 52.46,145.46 44.77,137.76 37.59,129.39 30.87,120.38 24.59,110.77 18.70,100.60 13.18,89.91 8.00,78.72 3.11,67.08 -1.52,55.03 -5.91,42.60 -10.11,29.82 -14.14,16.74 -18.05,3.39 -21.86,-10.20 -25.61,-23.98 -29.34,-37.92 -33.07,-51.98 -36.84,-66.14 -40.69,-80.34 -44.65,-94.55 -48.75,-108.75 -53.02,-122.88 -57.51,-136.92 -62.24,-150.82 -67.25,-164.56 -72.57,-178.09 -78.24,-191.37 -84.29,-204.38 -90.75,-217.07 -97.66,-229.41 -105.06,-241.37 -112.97,-252.89 -121.42,-263.96 -130.47,-274.52 -140.13,-284.55 -150.44,-294.01 -161.43,-302.86 -173.15,-311.07 -185.62,-318.59" />
    <polyline
       id="polyline5499"
       style="stroke-width:0.2;stroke:url(#linearGradient2447);fill:none;stroke-opacity:1;fill-opacity:1"
       points="179.61,189.13 165.04,190.12 151.31,190.05 138.39,188.97 126.25,186.90 114.84,183.90 104.13,179.99 94.10,175.21 84.70,169.60 75.91,163.19 67.69,156.02 60.00,148.14 52.82,139.57 46.10,130.35 39.81,120.52 33.93,110.12 28.41,99.19 23.22,87.75 18.34,75.86 13.71,63.53 9.32,50.82 5.12,37.76 1.08,24.39 -2.82,10.73 -6.63,-3.16 -10.39,-17.26 -14.11,-31.52 -17.84,-45.91 -21.61,-60.40 -25.46,-74.94 -29.42,-89.50 -33.52,-104.03 -37.79,-118.52 -42.28,-132.91 -47.01,-147.17 -52.02,-161.27 -57.34,-175.16 -63.01,-188.81 -69.06,-202.18 -75.52,-215.24 -82.44,-227.95 -89.83,-240.27 -97.74,-252.16 -106.20,-263.60 -115.24,-274.53 -124.90,-284.93 -135.21,-294.75 -146.20,-303.96 -157.92,-312.53 -170.39,-320.41" />
    <polyline
       id="polyline5501"
       style="stroke-width:0.2;stroke:url(#linearGradient2447);fill:none;stroke-opacity:1;fill-opacity:1"
       points="193.85,198.76 179.28,199.76 165.56,199.70 152.64,198.60 140.49,196.51 129.08,193.46 118.37,189.49 108.34,184.64 98.95,178.95 90.15,172.44 81.93,165.17 74.24,157.16 67.06,148.46 60.34,139.09 54.06,129.11 48.17,118.54 42.65,107.43 37.47,95.81 32.58,83.71 27.95,71.19 23.56,58.26 19.36,44.98 15.33,31.37 11.42,17.48 7.61,3.34 3.86,-11.01 0.13,-25.53 -3.60,-40.18 -7.37,-54.94 -11.22,-69.75 -15.18,-84.59 -19.28,-99.41 -23.55,-114.18 -28.04,-128.86 -32.77,-143.42 -37.78,-157.81 -43.10,-172.00 -48.77,-185.95 -54.82,-199.63 -61.28,-212.99 -68.19,-226.00 -75.59,-238.63 -83.49,-250.83 -91.95,-262.56 -101.00,-273.80 -110.65,-284.50 -120.97,-294.62 -131.96,-304.13 -143.68,-312.99 -156.15,-321.16" />
    <polyline
       id="polyline5503"
       style="stroke-width:0.2;stroke:url(#linearGradient2447);fill:none;stroke-opacity:1;fill-opacity:1"
       points="207.17,206.41 192.60,207.50 178.87,207.49 165.95,206.44 153.80,204.39 142.39,201.35 131.69,197.39 121.66,192.53 112.26,186.81 103.47,180.26 95.25,172.94 87.56,164.87 80.37,156.09 73.66,146.64 67.37,136.56 61.49,125.89 55.97,114.66 50.78,102.91 45.89,90.68 41.27,78.01 36.87,64.93 32.68,51.48 28.64,37.71 24.74,23.64 20.92,9.31 17.17,-5.23 13.45,-19.94 9.72,-34.80 5.94,-49.77 2.09,-64.79 -1.86,-79.85 -5.96,-94.90 -10.24,-109.89 -14.72,-124.81 -19.46,-139.60 -24.47,-154.22 -29.79,-168.65 -35.46,-182.85 -41.51,-196.76 -47.97,-210.37 -54.88,-223.63 -62.27,-236.49 -70.18,-248.94 -78.64,-260.92 -87.68,-272.39 -97.34,-283.33 -107.65,-293.70 -118.65,-303.44 -130.36,-312.54 -142.83,-320.95" />
    <polyline
       id="polyline5505"
       style="stroke-width:0.2;stroke:url(#linearGradient2447);fill:none;stroke-opacity:1;fill-opacity:1"
       points="219.61,212.18 205.04,213.39 191.32,213.51 178.40,212.57 166.25,210.59 154.84,207.64 144.14,203.73 134.10,198.92 124.71,193.23 115.92,186.71 107.69,179.39 100.01,171.31 92.82,162.52 86.10,153.04 79.82,142.92 73.93,132.20 68.41,120.91 63.23,109.09 58.34,96.78 53.71,84.02 49.32,70.84 45.12,57.29 41.09,43.40 37.18,29.21 33.37,14.76 29.62,0.08 25.89,-14.78 22.16,-29.78 18.39,-44.90 14.54,-60.08 10.58,-75.30 6.48,-90.51 2.21,-105.68 -2.28,-120.77 -7.01,-135.73 -12.02,-150.54 -17.34,-165.15 -23.01,-179.53 -29.06,-193.63 -35.52,-207.42 -42.43,-220.87 -49.83,-233.92 -57.73,-246.55 -66.19,-258.72 -75.23,-270.38 -84.89,-281.51 -95.21,-292.05 -106.20,-301.98 -117.92,-311.26 -130.39,-319.84" />
    <polyline
       id="polyline5507"
       style="stroke-width:0.2;stroke:url(#linearGradient2447);fill:none;stroke-opacity:1;fill-opacity:1"
       points="231.25,216.13 216.68,217.54 202.95,217.83 190.03,217.04 177.88,215.21 166.48,212.38 155.77,208.59 145.74,203.87 136.34,198.27 127.55,191.82 119.33,184.56 111.64,176.54 104.46,167.78 97.74,158.33 91.45,148.22 85.57,137.50 80.05,126.20 74.86,114.37 69.98,102.03 65.35,89.23 60.96,76.01 56.76,62.41 52.72,48.46 48.82,34.20 45.01,19.68 41.25,4.92 37.53,-10.03 33.80,-25.13 30.02,-40.34 26.18,-55.63 22.22,-70.96 18.12,-86.28 13.84,-101.57 9.36,-116.77 4.63,-131.86 -0.38,-146.80 -5.71,-161.53 -11.37,-176.04 -17.42,-190.28 -23.89,-204.20 -30.80,-217.78 -38.19,-230.97 -46.10,-243.73 -54.56,-256.03 -63.60,-267.83 -73.26,-279.08 -83.57,-289.76 -94.57,-299.82 -106.28,-309.22 -118.75,-317.92" />
    <polyline
       id="polyline5509"
       style="stroke-width:0.2;stroke:url(#linearGradient2447);fill:none;stroke-opacity:1;fill-opacity:1"
       points="242.13,218.36 227.57,220.01 213.84,220.52 200.92,219.94 188.77,218.30 177.36,215.65 166.66,212.02 156.62,207.45 147.23,201.99 138.44,195.66 130.21,188.51 122.53,180.58 115.34,171.91 108.62,162.54 102.34,152.49 96.45,141.83 90.93,130.57 85.75,118.77 80.86,106.46 76.24,93.67 71.84,80.46 67.64,66.85 63.61,52.89 59.70,38.62 55.89,24.07 52.14,9.28 48.41,-5.70 44.68,-20.84 40.91,-36.11 37.06,-51.45 33.10,-66.83 29.01,-82.22 24.73,-97.57 20.24,-112.85 15.51,-128.01 10.50,-143.02 5.18,-157.84 -0.49,-172.43 -6.54,-186.75 -13.00,-200.75 -19.91,-214.41 -27.30,-227.69 -35.21,-240.54 -43.67,-252.92 -52.71,-264.80 -62.37,-276.14 -72.68,-286.89 -83.68,-297.03 -95.40,-306.50 -107.87,-315.28" />
    <polyline
       id="polyline5511"
       style="stroke-width:0.2;stroke:url(#linearGradient2447);fill:none;stroke-opacity:1;fill-opacity:1"
       points="252.33,218.95 237.76,220.88 224.03,221.66 211.11,221.33 198.96,219.93 187.55,217.50 176.85,214.09 166.82,209.71 157.42,204.43 148.63,198.28 140.41,191.29 132.72,183.50 125.53,174.96 118.81,165.71 112.53,155.78 106.65,145.21 101.13,134.05 95.94,122.32 91.05,110.08 86.43,97.36 82.03,84.20 77.84,70.64 73.80,56.71 69.89,42.47 66.08,27.94 62.33,13.17 58.61,-1.80 54.87,-16.94 51.10,-32.21 47.25,-47.56 43.30,-62.96 39.20,-78.36 34.92,-93.73 30.43,-109.03 25.70,-124.22 20.69,-139.26 15.37,-154.11 9.70,-168.73 3.65,-183.08 -2.81,-197.13 -9.72,-210.83 -17.11,-224.14 -25.02,-237.02 -33.48,-249.44 -42.52,-261.36 -52.18,-272.73 -62.49,-283.52 -73.49,-293.68 -85.20,-303.19 -97.67,-311.99" />
    <polyline
       id="polyline5513"
       style="stroke-width:0.2;stroke:url(#linearGradient2447);fill:none;stroke-opacity:1;fill-opacity:1"
       points="261.88,217.97 247.32,220.23 233.59,221.33 220.67,221.29 208.52,220.18 197.11,218.02 186.41,214.85 176.37,210.72 166.98,205.66 158.19,199.72 149.96,192.93 142.28,185.34 135.09,176.97 128.37,167.88 122.09,158.11 116.20,147.68 110.69,136.65 105.50,125.05 100.61,112.93 95.99,100.31 91.59,87.24 87.39,73.77 83.36,59.93 79.45,45.75 75.64,31.29 71.89,16.58 68.16,1.66 64.43,-13.44 60.66,-28.66 56.81,-43.97 52.86,-59.34 48.76,-74.72 44.48,-90.07 39.99,-105.35 35.26,-120.52 30.25,-135.54 24.93,-150.38 19.26,-164.99 13.21,-179.34 6.75,-193.37 -0.16,-207.06 -7.55,-220.37 -15.46,-233.25 -23.92,-245.66 -32.96,-257.57 -42.62,-268.93 -52.93,-279.71 -63.93,-289.87 -75.65,-299.35 -88.12,-308.14" />
    <polyline
       id="polyline5515"
       style="stroke-width:0.2;stroke:url(#linearGradient2447);fill:none;stroke-opacity:1;fill-opacity:1"
       points="270.87,215.52 256.30,218.15 242.57,219.60 229.65,219.90 217.50,219.11 206.09,217.25 195.39,214.38 185.36,210.53 175.96,205.74 167.17,200.05 158.95,193.50 151.26,186.13 144.07,177.99 137.36,169.10 131.07,159.52 125.19,149.28 119.67,138.42 114.48,126.98 109.59,115.01 104.97,102.54 100.58,89.61 96.38,76.26 92.34,62.54 88.44,48.48 84.62,34.12 80.87,19.51 77.15,4.68 73.42,-10.33 69.64,-25.47 65.80,-40.71 61.84,-56.00 57.74,-71.31 53.46,-86.60 48.98,-101.82 44.24,-116.93 39.23,-131.91 33.91,-146.69 28.24,-161.25 22.20,-175.55 15.73,-189.54 8.82,-203.18 1.43,-216.44 -6.48,-229.28 -14.94,-241.64 -23.98,-253.50 -33.64,-264.82 -43.95,-275.55 -54.95,-285.65 -66.66,-295.08 -79.13,-303.81" />
    <polyline
       id="polyline5517"
       style="stroke-width:0.2;stroke:url(#linearGradient2447);fill:none;stroke-opacity:1;fill-opacity:1"
       points="279.33,211.68 264.77,214.71 251.04,216.54 238.12,217.22 225.97,216.79 214.56,215.28 203.86,212.74 193.82,209.20 184.43,204.71 175.64,199.31 167.41,193.04 159.73,185.94 152.54,178.04 145.82,169.40 139.54,160.05 133.65,150.03 128.14,139.38 122.95,128.14 118.06,116.36 113.44,104.07 109.04,91.31 104.84,78.13 100.81,64.56 96.90,50.65 93.09,36.44 89.34,21.96 85.61,7.26 81.88,-7.62 78.11,-22.65 74.26,-37.77 70.31,-52.96 66.21,-68.17 61.93,-83.35 57.44,-98.48 52.71,-113.50 47.70,-128.38 42.38,-143.08 36.71,-157.55 30.66,-171.76 24.20,-185.67 17.29,-199.23 9.90,-212.41 1.99,-225.16 -6.47,-237.44 -15.51,-249.22 -25.17,-260.45 -35.48,-271.09 -46.48,-281.10 -58.20,-290.45 -70.67,-299.08" />
    <polyline
       id="polyline5519"
       style="stroke-width:0.2;stroke:url(#linearGradient2447);fill:none;stroke-opacity:1;fill-opacity:1"
       points="287.34,206.52 272.78,209.99 259.05,212.25 246.13,213.33 233.98,213.29 222.57,212.16 211.87,209.98 201.83,206.79 192.44,202.64 183.65,197.56 175.42,191.60 167.74,184.80 160.55,177.19 153.83,168.82 147.55,159.73 141.66,149.96 136.15,139.56 130.96,128.55 126.07,116.99 121.45,104.92 117.05,92.37 112.85,79.38 108.82,66.01 104.91,52.28 101.10,38.24 97.35,23.93 93.62,9.39 89.89,-5.34 86.12,-20.21 82.27,-35.19 78.32,-50.23 74.22,-65.30 69.94,-80.36 65.45,-95.35 60.72,-110.25 55.71,-125.01 50.39,-139.58 44.72,-153.94 38.67,-168.03 32.21,-181.82 25.30,-195.27 17.91,-208.33 10.00,-220.96 1.54,-233.13 -7.50,-244.79 -17.16,-255.90 -27.47,-266.42 -38.47,-276.31 -50.19,-285.53 -62.66,-294.04" />
    <polyline
       id="polyline5521"
       style="stroke-width:0.2;stroke:url(#linearGradient2447);fill:none;stroke-opacity:1;fill-opacity:1"
       points="294.95,200.13 280.39,204.07 266.66,206.78 253.74,208.30 241.59,208.68 230.18,207.96 219.48,206.17 209.44,203.36 200.05,199.58 191.26,194.85 183.03,189.23 175.35,182.75 168.16,175.46 161.44,167.40 155.16,158.60 149.27,149.12 143.76,138.98 138.57,128.24 133.68,116.94 129.06,105.11 124.66,92.79 120.46,80.03 116.43,66.88 112.52,53.36 108.71,39.53 104.96,25.42 101.23,11.07 97.50,-3.47 93.73,-18.16 89.88,-32.97 85.93,-47.84 81.83,-62.75 77.55,-77.64 73.06,-92.47 68.33,-107.21 63.32,-121.82 58.00,-136.24 52.33,-150.45 46.28,-164.39 39.82,-178.04 32.91,-191.34 25.52,-204.25 17.61,-216.74 9.15,-228.76 0.11,-240.27 -9.55,-251.24 -19.86,-261.61 -30.86,-271.35 -42.58,-280.41 -55.05,-288.76" />
    <polyline
       id="polyline5523"
       style="stroke-width:0.2;stroke:url(#linearGradient2447);fill:none;stroke-opacity:1;fill-opacity:1"
       points="302.23,192.60 287.66,197.03 273.93,200.22 261.01,202.21 248.86,203.03 237.45,202.74 226.75,201.37 216.71,198.97 207.32,195.58 198.53,191.23 190.30,185.98 182.62,179.85 175.43,172.91 168.71,165.17 162.43,156.70 156.54,147.52 151.03,137.69 145.84,127.24 140.95,116.21 136.33,104.65 131.93,92.60 127.74,80.09 123.70,67.18 119.79,53.91 115.98,40.30 112.23,26.42 108.51,12.29 104.77,-2.04 101.00,-16.52 97.15,-31.13 93.20,-45.80 89.10,-60.51 84.82,-75.21 80.33,-89.86 75.60,-104.42 70.59,-118.84 65.27,-133.09 59.60,-147.12 53.55,-160.89 47.09,-174.36 40.18,-187.49 32.79,-200.23 24.88,-212.55 16.42,-224.40 7.38,-235.74 -2.28,-246.53 -12.59,-256.72 -23.59,-266.28 -35.31,-275.17 -47.77,-283.33" />
    <polyline
       id="polyline5525"
       style="stroke-width:0.2;stroke:url(#linearGradient2447);fill:none;stroke-opacity:1;fill-opacity:1"
       points="309.21,184.00 294.65,188.95 280.92,192.64 268.00,195.11 255.85,196.41 244.44,196.58 233.74,195.65 223.70,193.68 214.31,190.70 205.52,186.76 197.29,181.89 189.61,176.15 182.42,169.56 175.70,162.18 169.42,154.05 163.53,145.21 158.02,135.70 152.83,125.56 147.94,114.84 143.32,103.57 138.92,91.80 134.72,79.58 130.69,66.93 126.78,53.92 122.97,40.57 119.22,26.93 115.49,13.05 111.76,-1.05 107.99,-15.30 104.14,-29.68 100.19,-44.13 96.09,-58.63 91.81,-73.12 87.32,-87.56 82.59,-101.91 77.58,-116.13 72.26,-130.18 66.59,-144.01 60.54,-157.58 54.08,-170.86 47.17,-183.79 39.78,-196.34 31.87,-208.46 23.41,-220.11 14.37,-231.25 4.71,-241.84 -5.60,-251.84 -16.60,-261.20 -28.32,-269.88 -40.79,-277.83" />
    <polyline
       id="polyline5527"
       style="stroke-width:0.2;stroke:url(#linearGradient2447);fill:none;stroke-opacity:1;fill-opacity:1"
       points="315.98,174.43 301.41,179.91 287.69,184.12 274.76,187.10 262.62,188.89 251.21,189.53 240.50,189.07 230.47,187.54 221.08,185.00 212.28,181.48 204.06,177.02 196.37,171.67 189.19,165.48 182.47,158.47 176.19,150.70 170.30,142.21 164.78,133.04 159.60,123.24 154.71,112.84 150.08,101.88 145.69,90.42 141.49,78.49 137.46,66.14 133.55,53.40 129.74,40.33 125.99,26.96 122.26,13.34 118.53,-0.50 114.76,-14.51 110.91,-28.64 106.95,-42.85 102.85,-57.11 98.58,-71.37 94.09,-85.58 89.36,-99.71 84.35,-113.70 79.03,-127.53 73.36,-141.14 67.31,-154.50 60.85,-167.56 53.94,-180.27 46.54,-192.61 38.63,-204.51 30.18,-215.95 21.13,-226.88 11.47,-237.25 1.16,-247.03 -9.83,-256.16 -21.55,-264.62 -34.02,-272.35" />
    <polyline
       id="polyline5529"
       style="stroke-width:0.2;stroke:url(#linearGradient2447);fill:none;stroke-opacity:1;fill-opacity:1"
       points="322.58,163.95 308.02,169.99 294.29,174.74 281.37,178.24 269.22,180.53 257.81,181.67 247.11,181.68 237.07,180.62 227.68,178.53 218.89,175.45 210.66,171.42 202.98,166.48 195.79,160.69 189.07,154.07 182.79,146.68 176.90,138.56 171.38,129.75 166.20,120.29 161.31,110.23 156.69,99.61 152.29,88.47 148.09,76.85 144.06,64.80 140.15,52.37 136.34,39.58 132.59,26.50 128.86,13.15 125.13,-0.41 121.36,-14.15 117.51,-28.02 113.55,-41.98 109.46,-55.98 105.18,-69.99 100.69,-83.96 95.96,-97.84 90.95,-111.60 85.63,-125.19 79.96,-138.57 73.91,-151.69 67.45,-164.52 60.54,-177.00 53.15,-189.11 45.24,-200.78 36.78,-211.99 27.74,-222.68 18.08,-232.82 7.77,-242.36 -3.23,-251.26 -14.95,-259.48 -27.42,-266.96" />
    <polyline
       id="polyline5531"
       style="stroke-width:0.2;stroke:url(#linearGradient2447);fill:none;stroke-opacity:1;fill-opacity:1"
       points="329.08,152.66 314.51,159.26 300.79,164.56 287.86,168.60 275.72,171.42 264.31,173.06 253.60,173.56 243.57,172.98 234.18,171.35 225.38,168.72 217.16,165.13 209.47,160.62 202.29,155.24 195.57,149.03 189.29,142.03 183.40,134.29 177.88,125.85 172.70,116.76 167.81,107.05 163.18,96.77 158.79,85.96 154.59,74.67 150.56,62.94 146.65,50.82 142.84,38.34 139.09,25.55 135.36,12.49 131.63,-0.79 127.86,-14.25 124.01,-27.84 120.05,-41.53 115.95,-55.27 111.68,-69.02 107.19,-82.73 102.46,-96.36 97.45,-109.86 92.13,-123.20 86.46,-136.33 80.41,-149.21 73.95,-161.79 67.04,-174.03 59.64,-185.89 51.73,-197.32 43.28,-208.28 34.23,-218.73 24.57,-228.62 14.26,-237.91 3.27,-246.56 -8.45,-254.52 -20.92,-261.75" />
    <polyline
       id="polyline5533"
       style="stroke-width:0.2;stroke:url(#linearGradient2447);fill:none;stroke-opacity:1;fill-opacity:1"
       points="335.53,140.63 320.96,147.82 307.24,153.67 294.32,158.26 282.17,161.60 270.76,163.76 260.06,164.77 250.02,164.67 240.63,163.52 231.83,161.35 223.61,158.20 215.92,154.13 208.74,149.18 202.02,143.38 195.74,136.78 189.85,129.43 184.33,121.37 179.15,112.65 174.26,103.30 169.63,93.37 165.24,82.91 161.04,71.96 157.01,60.56 153.10,48.75 149.29,36.59 145.54,24.10 141.81,11.35 138.08,-1.64 134.31,-14.81 130.46,-28.12 126.50,-41.53 122.40,-54.99 118.13,-68.47 113.64,-81.91 108.91,-95.27 103.90,-108.52 98.58,-121.60 92.91,-134.47 86.86,-147.09 80.40,-159.42 73.49,-171.40 66.09,-183.01 58.19,-194.18 49.73,-204.89 40.69,-215.08 31.03,-224.72 20.71,-233.75 9.72,-242.14 -2.00,-249.84 -14.47,-256.81" />
    <polyline
       id="polyline5535"
       style="stroke-width:0.2;stroke:url(#linearGradient2447);fill:none;stroke-opacity:1;fill-opacity:1"
       points="342.00,127.96 327.43,135.72 313.70,142.15 300.78,147.28 288.63,151.16 277.22,153.84 266.52,155.36 256.49,155.76 247.09,155.08 238.30,153.38 230.08,150.69 222.39,147.06 215.20,142.54 208.48,137.16 202.20,130.97 196.32,124.02 190.80,116.35 185.61,108.00 180.72,99.02 176.10,89.45 171.70,79.34 167.51,68.73 163.47,57.66 159.56,46.18 155.75,34.34 152.00,22.17 148.28,9.72 144.54,-2.97 140.77,-15.84 136.92,-28.86 132.97,-41.99 128.87,-55.17 124.59,-68.37 120.10,-81.53 115.37,-94.63 110.36,-107.60 105.04,-120.42 99.37,-133.03 93.32,-145.38 86.86,-157.45 79.95,-169.17 72.56,-180.52 64.65,-191.43 56.19,-201.88 47.15,-211.81 37.49,-221.18 27.18,-229.95 16.18,-238.07 4.47,-245.50 -8.00,-252.20" />
    <polyline
       id="polyline5537"
       style="stroke-width:0.2;stroke:url(#linearGradient2447);fill:none;stroke-opacity:1;fill-opacity:1"
       points="348.53,114.72 333.96,123.07 320.24,130.06 307.31,135.75 295.17,140.17 283.76,143.37 273.05,145.40 263.02,146.29 253.63,146.10 244.83,144.87 236.61,142.64 228.92,139.46 221.74,135.36 215.02,130.41 208.74,124.63 202.85,118.08 197.33,110.80 192.15,102.83 187.26,94.22 182.63,85.02 178.24,75.26 174.04,64.99 170.01,54.26 166.10,43.11 162.29,31.59 158.54,19.74 154.81,7.60 151.08,-4.78 147.31,-17.36 143.46,-30.09 139.50,-42.92 135.40,-55.82 131.13,-68.74 126.64,-81.63 121.91,-94.45 116.90,-107.16 111.58,-119.70 105.91,-132.04 99.86,-144.14 93.40,-155.93 86.49,-167.40 79.09,-178.48 71.18,-189.13 62.73,-199.31 53.68,-208.98 44.02,-218.09 33.71,-226.59 22.72,-234.44 11.00,-241.60 -1.47,-248.02" />
    <polyline
       id="polyline5539"
       style="stroke-width:0.2;stroke:url(#linearGradient2447);fill:none;stroke-opacity:1;fill-opacity:1"
       points="355.20,100.99 340.63,109.92 326.90,117.49 313.98,123.73 301.83,128.69 290.42,132.42 279.72,134.95 269.69,136.34 260.29,136.64 251.50,135.87 243.27,134.10 235.59,131.36 228.40,127.70 221.68,123.17 215.40,117.80 209.52,111.65 204.00,104.76 198.81,97.17 193.92,88.93 189.30,80.09 184.90,70.68 180.71,60.76 176.67,50.37 172.76,39.55 168.95,28.35 165.20,16.81 161.48,4.98 157.74,-7.10 153.97,-19.38 150.12,-31.81 146.17,-44.36 142.07,-56.97 137.79,-69.61 133.30,-82.23 128.57,-94.77 123.56,-107.21 118.24,-119.48 112.57,-131.56 106.52,-143.39 100.06,-154.92 93.15,-166.12 85.76,-176.94 77.85,-187.33 69.39,-197.25 60.35,-206.65 50.69,-215.49 40.38,-223.73 29.38,-231.31 17.66,-238.20 5.20,-244.35" />
    <polyline
       id="polyline5541"
       style="stroke-width:0.2;stroke:url(#linearGradient2447);fill:none;stroke-opacity:1;fill-opacity:1"
       points="362.05,86.86 347.48,96.38 333.75,104.51 320.83,111.30 308.68,116.79 297.28,121.04 286.57,124.08 276.54,125.97 267.14,126.74 258.35,126.44 250.13,125.12 242.44,122.82 235.26,119.59 228.54,115.47 222.25,110.52 216.37,104.76 210.85,98.25 205.66,91.04 200.77,83.17 196.15,74.68 191.76,65.63 187.56,56.05 183.52,45.99 179.62,35.49 175.80,24.61 172.05,13.38 168.33,1.86 164.60,-9.92 160.82,-21.90 156.98,-34.05 153.02,-46.31 148.92,-58.65 144.64,-71.01 140.16,-83.35 135.43,-95.63 130.42,-107.80 125.09,-119.81 119.43,-131.62 113.38,-143.19 106.91,-154.46 100.00,-165.40 92.61,-175.96 84.70,-186.09 76.24,-195.75 67.20,-204.90 57.54,-213.48 47.23,-221.45 36.23,-228.77 24.52,-235.39 12.05,-241.26" />
    <polyline
       id="polyline5543"
       style="stroke-width:0.2;stroke:url(#linearGradient2447);fill:none;stroke-opacity:1;fill-opacity:1"
       points="369.15,72.41 354.58,82.50 340.85,91.19 327.93,98.52 315.78,104.55 304.38,109.31 293.67,112.85 283.64,115.22 274.24,116.46 265.45,116.62 257.23,115.75 249.54,113.88 242.36,111.07 235.64,107.37 229.35,102.81 223.47,97.44 217.95,91.32 212.76,84.47 207.88,76.96 203.25,68.83 198.86,60.11 194.66,50.86 190.62,41.13 186.72,30.95 182.91,20.38 179.15,9.46 175.43,-1.77 171.70,-13.25 167.92,-24.95 164.08,-36.81 160.12,-48.80 156.02,-60.86 151.74,-72.96 147.26,-85.03 142.53,-97.05 137.52,-108.96 132.19,-120.71 126.53,-132.27 120.48,-143.58 114.01,-154.60 107.10,-165.29 99.71,-175.60 91.80,-185.48 83.34,-194.89 74.30,-203.78 64.64,-212.10 54.33,-219.82 43.33,-226.88 31.62,-233.24 19.15,-238.85" />
    <polyline
       id="polyline5545"
       style="stroke-width:0.2;stroke:url(#linearGradient2447);fill:none;stroke-opacity:1;fill-opacity:1"
       points="376.56,57.73 361.99,68.38 348.26,77.62 335.34,85.48 323.19,92.02 311.78,97.29 301.08,101.32 291.05,104.16 281.65,105.86 272.86,106.47 264.64,106.03 256.95,104.59 249.76,102.20 243.04,98.89 236.76,94.72 230.88,89.73 225.36,83.97 220.17,77.49 215.28,70.33 210.66,62.53 206.26,54.15 202.07,45.22 198.03,35.80 194.12,25.93 190.31,15.66 186.56,5.03 182.84,-5.91 179.10,-17.11 175.33,-28.53 171.48,-40.12 167.53,-51.84 163.43,-63.64 159.15,-75.48 154.66,-87.30 149.93,-99.06 144.92,-110.72 139.60,-122.23 133.93,-133.54 127.88,-144.61 121.42,-155.39 114.51,-165.84 107.12,-175.91 99.21,-185.54 90.75,-194.71 81.71,-203.36 72.05,-211.44 61.74,-218.91 50.74,-225.72 39.03,-231.83 26.56,-237.19" />
    <polyline
       id="polyline5547"
       style="stroke-width:0.2;stroke:url(#linearGradient2447);fill:none;stroke-opacity:1;fill-opacity:1"
       points="384.33,42.89 369.76,54.09 356.03,63.86 343.11,72.25 330.96,79.29 319.55,85.04 308.85,89.54 298.82,92.85 289.42,95.00 280.63,96.04 272.41,96.03 264.72,94.99 257.53,93.00 250.82,90.08 244.53,86.28 238.65,81.66 233.13,76.25 227.94,70.11 223.05,63.29 218.43,55.81 214.04,47.75 209.84,39.13 205.80,30.01 201.90,20.44 198.08,10.45 194.33,0.11 190.61,-10.56 186.88,-21.49 183.10,-32.65 179.26,-43.99 175.30,-55.46 171.20,-67.01 166.92,-78.60 162.44,-90.18 157.70,-101.70 152.69,-113.13 147.37,-124.40 141.70,-135.49 135.66,-146.33 129.19,-156.88 122.28,-167.10 114.89,-176.94 106.98,-186.35 98.52,-195.29 89.48,-203.71 79.82,-211.56 69.51,-218.80 58.51,-225.38 46.80,-231.25 34.33,-236.37" />
    <polyline
       id="polyline5549"
       style="stroke-width:0.2;stroke:url(#linearGradient2447);fill:none;stroke-opacity:1;fill-opacity:1"
       points="392.52,27.98 377.95,39.72 364.23,50.00 351.31,58.89 339.16,66.42 327.75,72.64 317.04,77.60 307.01,81.35 297.62,83.93 288.82,85.39 280.60,85.77 272.91,85.14 265.73,83.52 259.01,80.97 252.73,77.53 246.84,73.25 241.32,68.19 236.14,62.37 231.25,55.86 226.62,48.70 222.23,40.93 218.03,32.61 214.00,23.77 210.09,14.48 206.28,4.76 202.53,-5.32 198.80,-15.73 195.07,-26.42 191.30,-37.33 187.45,-48.43 183.49,-59.66 179.39,-70.98 175.12,-82.34 170.63,-93.70 165.90,-105.00 160.89,-116.21 155.57,-127.27 149.90,-138.14 143.85,-148.77 137.39,-159.11 130.48,-169.12 123.08,-178.75 115.18,-187.95 106.72,-196.68 97.67,-204.89 88.02,-212.52 77.70,-219.55 66.71,-225.91 54.99,-231.57 42.52,-236.47" />
    <polyline
       id="polyline5551"
       style="stroke-width:0.2;stroke:url(#linearGradient2447);fill:none;stroke-opacity:1;fill-opacity:1"
       points="401.20,13.08 386.63,25.33 372.90,36.11 359.98,45.48 347.83,53.47 336.43,60.14 325.72,65.54 315.69,69.71 306.29,72.70 297.50,74.56 289.28,75.33 281.59,75.06 274.41,73.80 267.69,71.60 261.40,68.50 255.52,64.55 250.00,59.80 244.81,54.29 239.93,48.08 235.30,41.20 230.91,33.72 226.71,25.66 222.67,17.09 218.77,8.05 214.96,-1.42 211.20,-11.26 207.48,-21.43 203.75,-31.89 199.98,-42.58 196.13,-53.45 192.17,-64.47 188.07,-75.58 183.79,-86.74 179.31,-97.89 174.58,-109.00 169.57,-120.01 164.24,-130.87 158.58,-141.55 152.53,-151.98 146.06,-162.14 139.15,-171.96 131.76,-181.40 123.85,-190.41 115.39,-198.95 106.35,-206.96 96.69,-214.41 86.38,-221.24 75.38,-227.41 63.67,-232.87 51.20,-237.57" />
    <polyline
       id="polyline5553"
       style="stroke-width:0.2;stroke:url(#linearGradient2447);fill:none;stroke-opacity:1;fill-opacity:1"
       points="410.42,-1.72 395.85,11.01 382.12,22.27 369.20,32.09 357.05,40.52 345.64,47.62 334.94,53.43 324.91,58.00 315.51,61.38 306.72,63.61 298.50,64.74 290.81,64.82 283.62,63.89 276.91,62.01 270.62,59.23 264.74,55.58 259.22,51.12 254.03,45.90 249.14,39.96 244.52,33.35 240.13,26.12 235.93,18.31 231.89,9.98 227.99,1.17 224.17,-8.08 220.42,-17.70 216.70,-27.66 212.97,-37.91 209.19,-48.40 205.35,-59.08 201.39,-69.91 197.29,-80.83 193.01,-91.81 188.53,-102.78 183.79,-113.71 178.79,-124.55 173.46,-135.24 167.79,-145.75 161.75,-156.02 155.28,-166.01 148.37,-175.66 140.98,-184.93 133.07,-193.78 124.61,-202.15 115.57,-210.00 105.91,-217.28 95.60,-223.95 84.60,-229.94 72.89,-235.22 60.42,-239.75" />
    <polyline
       id="polyline5555"
       style="stroke-width:0.2;stroke:url(#linearGradient2447);fill:none;stroke-opacity:1;fill-opacity:1"
       points="420.24,-16.34 405.67,-3.15 391.94,8.55 379.02,18.80 366.87,27.65 355.46,35.14 344.76,41.34 334.73,46.28 325.33,50.01 316.54,52.59 308.32,54.05 300.63,54.45 293.44,53.83 286.72,52.25 280.44,49.75 274.56,46.38 269.04,42.18 263.85,37.21 258.96,31.52 254.34,25.15 249.94,18.14 245.75,10.56 241.71,2.43 237.80,-6.17 233.99,-15.22 230.24,-24.65 226.52,-34.43 222.78,-44.50 219.01,-54.81 215.16,-65.33 211.21,-75.99 207.11,-86.76 202.83,-97.58 198.34,-108.40 193.61,-119.18 188.60,-129.87 183.28,-140.42 177.61,-150.79 171.56,-160.92 165.10,-170.77 158.19,-180.28 150.80,-189.42 142.89,-198.13 134.43,-206.36 125.39,-214.07 115.73,-221.21 105.42,-227.73 94.42,-233.58 82.71,-238.72 70.24,-243.09" />
    <polyline
       id="polyline5557"
       style="stroke-width:0.2;stroke:url(#linearGradient2447);fill:none;stroke-opacity:1;fill-opacity:1"
       points="430.71,-30.71 416.14,-17.09 402.42,-4.98 389.50,5.67 377.35,14.90 365.94,22.77 355.24,29.32 345.20,34.60 335.81,38.66 327.01,41.55 318.79,43.31 311.10,44.00 303.92,43.66 297.20,42.35 290.92,40.10 285.03,36.97 279.51,33.01 274.33,28.27 269.44,22.79 264.81,16.62 260.42,9.81 256.22,2.42 252.19,-5.52 248.28,-13.96 244.47,-22.84 240.72,-32.11 236.99,-41.73 233.26,-51.66 229.49,-61.83 225.64,-72.21 221.68,-82.74 217.58,-93.38 213.31,-104.07 208.82,-114.77 204.09,-125.44 199.08,-136.01 193.76,-146.45 188.09,-156.71 182.04,-166.73 175.58,-176.47 168.67,-185.87 161.27,-194.90 153.37,-203.51 144.91,-211.63 135.87,-219.24 126.21,-226.27 115.89,-232.67 104.90,-238.41 93.18,-243.43 80.71,-247.69" />
    <polyline
       id="polyline5559"
       style="stroke-width:0.2;stroke:url(#linearGradient2447);fill:none;stroke-opacity:1;fill-opacity:1"
       points="441.91,-44.73 427.34,-30.72 413.61,-18.23 400.69,-7.21 388.54,2.37 377.13,10.57 366.43,17.44 356.40,23.03 347.00,27.38 338.21,30.55 329.99,32.58 322.30,33.52 315.11,33.43 308.39,32.34 302.11,30.32 296.23,27.40 290.71,23.64 285.52,19.08 280.63,13.78 276.01,7.79 271.61,1.14 267.42,-6.10 263.38,-13.89 259.47,-22.18 255.66,-30.93 251.91,-40.08 248.19,-49.58 244.45,-59.39 240.68,-69.46 236.83,-79.73 232.88,-90.17 228.78,-100.71 224.50,-111.31 220.01,-121.93 215.28,-132.51 210.27,-143.01 204.95,-153.37 199.28,-163.54 193.23,-173.49 186.77,-183.15 179.86,-192.49 172.47,-201.45 164.56,-209.98 156.10,-218.03 147.06,-225.56 137.40,-232.51 127.09,-238.84 116.09,-244.50 104.38,-249.44 91.91,-253.61" />
    <polyline
       id="polyline5561"
       style="stroke-width:0.2;stroke:url(#linearGradient2447);fill:none;stroke-opacity:1;fill-opacity:1"
       points="453.88,-58.33 439.31,-43.96 425.58,-31.12 412.66,-19.79 400.51,-9.89 389.10,-1.40 378.40,5.76 368.37,11.61 358.97,16.22 350.18,19.63 341.96,21.89 334.27,23.05 327.08,23.16 320.36,22.27 314.08,20.43 308.20,17.69 302.68,14.09 297.49,9.69 292.60,4.53 287.98,-1.33 283.58,-7.85 279.39,-14.97 275.35,-22.66 271.44,-30.85 267.63,-39.50 263.88,-48.56 260.16,-57.98 256.42,-67.72 252.65,-77.71 248.80,-87.92 244.85,-98.29 240.75,-108.78 236.47,-119.33 231.98,-129.90 227.25,-140.43 222.24,-150.89 216.92,-161.21 211.25,-171.34 205.20,-181.25 198.74,-190.88 191.83,-200.18 184.44,-209.10 176.53,-217.60 168.07,-225.61 159.03,-233.11 149.37,-240.02 139.06,-246.31 128.06,-251.93 116.35,-256.83 103.88,-260.95" />
    <polyline
       id="polyline5563"
       style="stroke-width:0.2;stroke:url(#linearGradient2447);fill:none;stroke-opacity:1;fill-opacity:1"
       points="466.68,-71.42 452.11,-56.73 438.38,-43.60 425.46,-31.97 413.32,-21.81 401.91,-13.06 391.20,-5.66 381.17,0.42 371.78,5.25 362.98,8.86 354.76,11.31 347.07,12.64 339.89,12.92 333.17,12.18 326.88,10.48 321.00,7.87 315.48,4.40 310.30,0.11 305.41,-4.95 300.78,-10.72 296.39,-17.15 292.19,-24.20 288.16,-31.82 284.25,-39.95 280.44,-48.54 276.69,-57.56 272.96,-66.94 269.23,-76.64 265.46,-86.60 261.61,-96.79 257.65,-107.14 253.55,-117.61 249.28,-128.15 244.79,-138.71 240.06,-149.24 235.05,-159.69 229.73,-170.01 224.06,-180.15 218.01,-190.06 211.55,-199.69 204.64,-209.00 197.24,-217.93 189.33,-226.43 180.88,-234.45 171.83,-241.94 162.17,-248.86 151.86,-255.16 140.87,-260.77 129.15,-265.66 116.68,-269.78" />
    <polyline
       id="polyline5565"
       style="stroke-width:0.2;stroke:url(#linearGradient2447);fill:none;stroke-opacity:1;fill-opacity:1"
       points="480.38,-83.92 465.81,-68.96 452.08,-55.57 439.16,-43.70 427.01,-33.31 415.61,-24.35 404.90,-16.75 394.87,-10.49 385.47,-5.49 376.68,-1.72 368.46,0.87 360.77,2.34 353.59,2.74 346.87,2.11 340.58,0.51 334.70,-2.02 329.18,-5.42 323.99,-9.64 319.11,-14.63 314.48,-20.35 310.09,-26.75 305.89,-33.77 301.85,-41.36 297.95,-49.47 294.14,-58.06 290.38,-67.07 286.66,-76.45 282.93,-86.16 279.15,-96.14 275.31,-106.34 271.35,-116.72 267.25,-127.22 262.97,-137.79 258.49,-148.39 253.76,-158.96 248.75,-169.45 243.42,-179.81 237.76,-190.00 231.71,-199.96 225.24,-209.64 218.33,-218.99 210.94,-227.97 203.03,-236.52 194.57,-244.59 185.53,-252.14 175.87,-259.10 165.56,-265.44 154.56,-271.10 142.85,-276.04 130.38,-280.19" />
    <polyline
       id="polyline5567"
       style="stroke-width:0.2;stroke:url(#linearGradient2447);fill:none;stroke-opacity:1;fill-opacity:1"
       points="495.03,-95.74 480.46,-80.56 466.73,-66.96 453.81,-54.90 441.66,-44.33 430.26,-35.20 419.55,-27.46 409.52,-21.06 400.12,-15.94 391.33,-12.06 383.11,-9.37 375.42,-7.81 368.24,-7.34 361.52,-7.91 355.23,-9.46 349.35,-11.95 343.83,-15.32 338.64,-19.52 333.76,-24.50 329.13,-30.22 324.74,-36.62 320.54,-43.66 316.50,-51.27 312.60,-59.42 308.79,-68.04 305.03,-77.10 301.31,-86.53 297.58,-96.29 293.80,-106.34 289.96,-116.61 286.00,-127.06 281.90,-137.63 277.62,-148.29 273.14,-158.97 268.41,-169.62 263.40,-180.20 258.07,-190.66 252.41,-200.94 246.36,-210.99 239.89,-220.77 232.98,-230.22 225.59,-239.30 217.68,-247.94 209.22,-256.11 200.18,-263.75 190.52,-270.81 180.21,-277.24 169.21,-283.00 157.50,-288.02 145.03,-292.26" />
    <polyline
       id="polyline5569"
       style="stroke-width:0.2;stroke:url(#linearGradient2447);fill:none;stroke-opacity:1;fill-opacity:1"
       points="510.69,-106.81 496.12,-91.45 482.39,-77.69 469.47,-65.49 457.33,-54.80 445.92,-45.55 435.21,-37.71 425.18,-31.22 415.78,-26.04 406.99,-22.10 398.77,-19.36 391.08,-17.77 383.90,-17.28 377.18,-17.84 370.89,-19.39 365.01,-21.88 359.49,-25.27 354.31,-29.51 349.42,-34.53 344.79,-40.30 340.40,-46.76 336.20,-53.86 332.17,-61.55 328.26,-69.78 324.45,-78.49 320.70,-87.64 316.97,-97.18 313.24,-107.05 309.47,-117.21 305.62,-127.59 301.66,-138.17 297.56,-148.87 293.29,-159.65 288.80,-170.47 284.07,-181.26 279.06,-191.98 273.74,-202.58 268.07,-213.01 262.02,-223.21 255.56,-233.13 248.65,-242.73 241.25,-251.95 233.34,-260.75 224.89,-269.07 215.84,-276.85 206.18,-284.06 195.87,-290.63 184.88,-296.53 173.16,-301.69 160.69,-306.07" />
    <polyline
       id="polyline5571"
       style="stroke-width:0.2;stroke:url(#linearGradient2447);fill:none;stroke-opacity:1;fill-opacity:1"
       points="527.42,-117.04 512.85,-101.56 499.13,-87.70 486.20,-75.41 474.06,-64.64 462.65,-55.34 451.94,-47.45 441.91,-40.94 432.52,-35.73 423.72,-31.79 415.50,-29.06 407.81,-27.49 400.63,-27.03 393.91,-27.63 387.63,-29.24 381.74,-31.80 376.22,-35.26 371.04,-39.58 366.15,-44.70 361.52,-50.58 357.13,-57.15 352.93,-64.37 348.90,-72.19 344.99,-80.55 341.18,-89.41 337.43,-98.71 333.70,-108.40 329.97,-118.43 326.20,-128.76 322.35,-139.32 318.39,-150.07 314.29,-160.95 310.02,-171.92 305.53,-182.92 300.80,-193.91 295.79,-204.83 290.47,-215.62 284.80,-226.24 278.75,-236.65 272.29,-246.77 265.38,-256.58 257.98,-266.00 250.07,-275.00 241.62,-283.52 232.57,-291.51 222.91,-298.91 212.60,-305.69 201.61,-311.78 189.89,-317.13 177.42,-321.70" />
    <polyline
       id="polyline5573"
       style="stroke-width:0.2;stroke:url(#linearGradient2447);fill:none;stroke-opacity:1;fill-opacity:1"
       points="545.28,-126.35 530.71,-110.81 516.99,-96.90 504.06,-84.58 491.92,-73.80 480.51,-64.49 469.80,-56.62 459.77,-50.13 450.38,-44.96 441.58,-41.08 433.36,-38.41 425.67,-36.92 418.49,-36.55 411.77,-37.25 405.49,-38.97 399.60,-41.66 394.08,-45.25 388.90,-49.72 384.01,-54.99 379.38,-61.02 374.99,-67.77 370.79,-75.17 366.76,-83.17 362.85,-91.73 359.04,-100.78 355.29,-110.29 351.56,-120.20 347.83,-130.45 344.06,-141.00 340.21,-151.79 336.25,-162.78 332.15,-173.90 327.88,-185.11 323.39,-196.36 318.66,-207.60 313.65,-218.77 308.33,-229.82 302.66,-240.70 296.61,-251.36 290.15,-261.74 283.24,-271.81 275.84,-281.49 267.93,-290.75 259.48,-299.53 250.43,-307.78 240.77,-315.44 230.46,-322.47 219.47,-328.82 207.75,-334.42 195.28,-339.24" />
    <polyline
       id="polyline5575"
       style="stroke-width:0.2;stroke:url(#linearGradient2447);fill:none;stroke-opacity:1;fill-opacity:1"
       points="564.33,-134.65 549.76,-119.11 536.03,-105.22 523.11,-92.93 510.96,-82.19 499.55,-72.95 488.85,-65.15 478.82,-58.74 469.42,-53.68 460.63,-49.91 452.41,-47.37 444.72,-46.02 437.53,-45.80 430.82,-46.66 424.53,-48.56 418.65,-51.42 413.13,-55.22 407.94,-59.88 403.05,-65.37 398.43,-71.63 394.04,-78.60 389.84,-86.24 385.80,-94.49 381.90,-103.30 378.08,-112.62 374.33,-122.40 370.61,-132.58 366.88,-143.12 363.10,-153.95 359.26,-165.04 355.30,-176.32 351.20,-187.74 346.92,-199.26 342.44,-210.81 337.71,-222.36 332.70,-233.84 327.37,-245.21 321.70,-256.41 315.66,-267.39 309.19,-278.09 302.28,-288.48 294.89,-298.48 286.98,-308.06 278.52,-317.16 269.48,-325.73 259.82,-333.71 249.51,-341.06 238.51,-347.72 226.80,-353.64 214.33,-358.77" />
    <polyline
       id="polyline5577"
       style="stroke-width:0.2;stroke:url(#linearGradient2447);fill:none;stroke-opacity:1;fill-opacity:1"
       points="584.62,-141.87 570.05,-126.39 556.32,-112.58 543.40,-100.38 531.26,-89.75 519.85,-80.63 509.14,-72.98 499.11,-66.72 489.71,-61.83 480.92,-58.23 472.70,-55.89 465.01,-54.74 457.83,-54.74 451.11,-55.83 444.82,-57.96 438.94,-61.07 433.42,-65.13 428.24,-70.06 423.35,-75.83 418.72,-82.37 414.33,-89.64 410.13,-97.58 406.10,-106.14 402.19,-115.28 398.38,-124.92 394.63,-135.03 390.90,-145.55 387.17,-156.43 383.40,-167.62 379.55,-179.06 375.59,-190.70 371.49,-202.49 367.22,-214.37 362.73,-226.30 358.00,-238.22 352.99,-250.08 347.67,-261.83 342.00,-273.41 335.95,-284.77 329.49,-295.87 322.57,-306.64 315.18,-317.03 307.27,-326.99 298.82,-336.48 289.77,-345.43 280.11,-353.80 269.80,-361.53 258.81,-368.57 247.09,-374.86 234.62,-380.36" />
    <polyline
       id="polyline5579"
       style="stroke-width:0.2;stroke:url(#linearGradient2447);fill:none;stroke-opacity:1;fill-opacity:1"
       points="606.22,-147.92 591.65,-132.57 577.92,-118.90 565.00,-106.87 552.85,-96.42 541.44,-87.49 530.74,-80.04 520.71,-74.01 511.31,-69.35 502.52,-66.00 494.30,-63.91 486.61,-63.03 479.42,-63.32 472.71,-64.70 466.42,-67.14 460.54,-70.57 455.02,-74.95 449.83,-80.22 444.94,-86.33 440.32,-93.23 435.93,-100.86 431.73,-109.18 427.69,-118.12 423.79,-127.64 419.97,-137.68 416.22,-148.19 412.50,-159.12 408.77,-170.41 404.99,-182.02 401.15,-193.88 397.19,-205.95 393.09,-218.17 388.81,-230.49 384.33,-242.86 379.59,-255.23 374.59,-267.53 369.26,-279.73 363.59,-291.76 357.55,-303.57 351.08,-315.12 344.17,-326.34 336.78,-337.19 328.87,-347.60 320.41,-357.54 311.37,-366.95 301.71,-375.76 291.40,-383.94 280.40,-391.43 268.69,-398.17 256.22,-404.12" />
    <polyline
       id="polyline5581"
       style="stroke-width:0.2;stroke:url(#linearGradient2447);fill:none;stroke-opacity:1;fill-opacity:1"
       points="0.00,0.00 25.23,31.12 49.01,59.51 71.39,85.27 92.43,108.48 112.19,129.22 130.73,147.57 148.11,163.62 164.38,177.44 179.61,189.13 193.85,198.76 207.17,206.41 219.61,212.18 231.25,216.13 242.13,218.36 252.33,218.95 261.88,217.97 270.87,215.52 279.33,211.68 287.34,206.52 294.95,200.13 302.23,192.60 309.21,184.00 315.98,174.43 322.58,163.95 329.08,152.66 335.53,140.63 342.00,127.96 348.53,114.72 355.20,100.99 362.05,86.86 369.15,72.41 376.56,57.73 384.33,42.89 392.52,27.98 401.20,13.08 410.42,-1.72 420.24,-16.34 430.71,-30.71 441.91,-44.73 453.88,-58.33 466.68,-71.42 480.38,-83.92 495.03,-95.74 510.69,-106.81 527.42,-117.04 545.28,-126.35 564.33,-134.65 584.62,-141.87 606.22,-147.92" />
    <polyline
       id="polyline5583"
       style="stroke-width:0.2;stroke:url(#linearGradient2447);fill:none;stroke-opacity:1;fill-opacity:1"
       points="-14.57,4.09 10.66,34.53 34.44,62.34 56.82,87.61 77.86,110.40 97.62,130.81 116.16,148.90 133.54,164.77 149.81,178.48 165.04,190.12 179.28,199.76 192.60,207.50 205.04,213.39 216.68,217.54 227.57,220.01 237.76,220.88 247.32,220.23 256.30,218.15 264.77,214.71 272.78,209.99 280.39,204.07 287.66,197.03 294.65,188.95 301.41,179.91 308.02,169.99 314.51,159.26 320.96,147.82 327.43,135.72 333.96,123.07 340.63,109.92 347.48,96.38 354.58,82.50 361.99,68.38 369.76,54.09 377.95,39.72 386.63,25.33 395.85,11.01 405.67,-3.15 416.14,-17.09 427.34,-30.72 439.31,-43.96 452.11,-56.73 465.81,-68.96 480.46,-80.56 496.12,-91.45 512.85,-101.56 530.71,-110.81 549.76,-119.11 570.05,-126.39 591.65,-132.57" />
    <polyline
       id="polyline5585"
       style="stroke-width:0.2;stroke:url(#linearGradient2447);fill:none;stroke-opacity:1;fill-opacity:1"
       points="-28.30,7.27 -3.06,37.02 20.71,64.23 43.09,88.98 64.13,111.35 83.90,131.40 102.43,149.22 119.81,164.89 136.09,178.47 151.31,190.05 165.56,199.70 178.87,207.49 191.32,213.51 202.95,217.83 213.84,220.52 224.03,221.66 233.59,221.33 242.57,219.60 251.04,216.54 259.05,212.25 266.66,206.78 273.93,200.22 280.92,192.64 287.69,184.12 294.29,174.74 300.79,164.56 307.24,153.67 313.70,142.15 320.24,130.06 326.90,117.49 333.75,104.51 340.85,91.19 348.26,77.62 356.03,63.86 364.23,50.00 372.90,36.11 382.12,22.27 391.94,8.55 402.42,-4.98 413.61,-18.23 425.58,-31.12 438.38,-43.60 452.08,-55.57 466.73,-66.96 482.39,-77.69 499.13,-87.70 516.99,-96.90 536.03,-105.22 556.32,-112.58 577.92,-118.90" />
    <polyline
       id="polyline5587"
       style="stroke-width:0.2;stroke:url(#linearGradient2447);fill:none;stroke-opacity:1;fill-opacity:1"
       points="-41.22,9.57 -15.98,38.61 7.79,65.21 30.17,89.43 51.21,111.35 70.97,131.04 89.51,148.58 106.89,164.03 123.16,177.47 138.39,188.97 152.64,198.60 165.95,206.44 178.40,212.57 190.03,217.04 200.92,219.94 211.11,221.33 220.67,221.29 229.65,219.90 238.12,217.22 246.13,213.33 253.74,208.30 261.01,202.21 268.00,195.11 274.76,187.10 281.37,178.24 287.86,168.60 294.32,158.26 300.78,147.28 307.31,135.75 313.98,123.73 320.83,111.30 327.93,98.52 335.34,85.48 343.11,72.25 351.31,58.89 359.98,45.48 369.20,32.09 379.02,18.80 389.50,5.67 400.69,-7.21 412.66,-19.79 425.46,-31.97 439.16,-43.70 453.81,-54.90 469.47,-65.49 486.20,-75.41 504.06,-84.58 523.11,-92.93 543.40,-100.38 565.00,-106.87" />
    <polyline
       id="polyline5589"
       style="stroke-width:0.2;stroke:url(#linearGradient2447);fill:none;stroke-opacity:1;fill-opacity:1"
       points="-53.36,11.02 -28.13,39.34 -4.35,65.31 18.02,88.99 39.07,110.45 58.83,129.76 77.37,146.99 94.74,162.21 111.02,175.50 126.25,186.90 140.49,196.51 153.80,204.39 166.25,210.59 177.88,215.21 188.77,218.30 198.96,219.93 208.52,220.18 217.50,219.11 225.97,216.79 233.98,213.29 241.59,208.68 248.86,203.03 255.85,196.41 262.62,188.89 269.22,180.53 275.72,171.42 282.17,161.60 288.63,151.16 295.17,140.17 301.83,128.69 308.68,116.79 315.78,104.55 323.19,92.02 330.96,79.29 339.16,66.42 347.83,53.47 357.05,40.52 366.87,27.65 377.35,14.90 388.54,2.37 400.51,-9.89 413.32,-21.81 427.01,-33.31 441.66,-44.33 457.33,-54.80 474.06,-64.64 491.92,-73.80 510.96,-82.19 531.26,-89.75 552.85,-96.42" />
    <polyline
       id="polyline5591"
       style="stroke-width:0.2;stroke:url(#linearGradient2447);fill:none;stroke-opacity:1;fill-opacity:1"
       points="-64.77,11.67 -39.54,39.25 -15.76,64.57 6.62,87.69 27.66,108.68 47.42,127.60 65.96,144.51 83.33,159.49 99.61,172.60 114.84,183.90 129.08,193.46 142.39,201.35 154.84,207.64 166.48,212.38 177.36,215.65 187.55,217.50 197.11,218.02 206.09,217.25 214.56,215.28 222.57,212.16 230.18,207.96 237.45,202.74 244.44,196.58 251.21,189.53 257.81,181.67 264.31,173.06 270.76,163.76 277.22,153.84 283.76,143.37 290.42,132.42 297.28,121.04 304.38,109.31 311.78,97.29 319.55,85.04 327.75,72.64 336.43,60.14 345.64,47.62 355.46,35.14 365.94,22.77 377.13,10.57 389.10,-1.40 401.91,-13.06 415.61,-24.35 430.26,-35.20 445.92,-45.55 462.65,-55.34 480.51,-64.49 499.55,-72.95 519.85,-80.63 541.44,-87.49" />
    <polyline
       id="polyline5593"
       style="stroke-width:0.2;stroke:url(#linearGradient2447);fill:none;stroke-opacity:1;fill-opacity:1"
       points="-75.48,11.53 -50.24,38.37 -26.47,63.03 -4.09,85.58 16.95,106.07 36.71,124.58 55.25,141.17 72.63,155.89 88.90,168.81 104.13,179.99 118.37,189.49 131.69,197.39 144.14,203.73 155.77,208.59 166.66,212.02 176.85,214.09 186.41,214.85 195.39,214.38 203.86,212.74 211.87,209.98 219.48,206.17 226.75,201.37 233.74,195.65 240.50,189.07 247.11,181.68 253.60,173.56 260.06,164.77 266.52,155.36 273.05,145.40 279.72,134.95 286.57,124.08 293.67,112.85 301.08,101.32 308.85,89.54 317.04,77.60 325.72,65.54 334.94,53.43 344.76,41.34 355.24,29.32 366.43,17.44 378.40,5.76 391.20,-5.66 404.90,-16.75 419.55,-27.46 435.21,-37.71 451.94,-47.45 469.80,-56.62 488.85,-65.15 509.14,-72.98 530.74,-80.04" />
    <polyline
       id="polyline5595"
       style="stroke-width:0.2;stroke:url(#linearGradient2447);fill:none;stroke-opacity:1;fill-opacity:1"
       points="-85.51,10.65 -60.28,36.72 -36.50,60.71 -14.12,82.67 6.92,102.67 26.68,120.75 45.22,136.99 62.60,151.44 78.87,164.16 94.10,175.21 108.34,184.64 121.66,192.53 134.10,198.92 145.74,203.87 156.62,207.45 166.82,209.71 176.37,210.72 185.36,210.53 193.82,209.20 201.83,206.79 209.44,203.36 216.71,198.97 223.70,193.68 230.47,187.54 237.07,180.62 243.57,172.98 250.02,164.67 256.49,155.76 263.02,146.29 269.69,136.34 276.54,125.97 283.64,115.22 291.05,104.16 298.82,92.85 307.01,81.35 315.69,69.71 324.91,58.00 334.73,46.28 345.20,34.60 356.40,23.03 368.37,11.61 381.17,0.42 394.87,-10.49 409.52,-21.06 425.18,-31.22 441.91,-40.94 459.77,-50.13 478.82,-58.74 499.11,-66.72 520.71,-74.01" />
    <polyline
       id="polyline5597"
       style="stroke-width:0.2;stroke:url(#linearGradient2447);fill:none;stroke-opacity:1;fill-opacity:1"
       points="-94.91,9.06 -69.67,34.36 -45.90,57.66 -23.52,79.02 -2.48,98.50 17.29,116.15 35.83,132.03 53.20,146.19 69.48,158.70 84.70,169.60 98.95,178.95 112.26,186.81 124.71,193.23 136.34,198.27 147.23,201.99 157.42,204.43 166.98,205.66 175.96,205.74 184.43,204.71 192.44,202.64 200.05,199.58 207.32,195.58 214.31,190.70 221.08,185.00 227.68,178.53 234.18,171.35 240.63,163.52 247.09,155.08 253.63,146.10 260.29,136.64 267.14,126.74 274.24,116.46 281.65,105.86 289.42,95.00 297.62,83.93 306.29,72.70 315.51,61.38 325.33,50.01 335.81,38.66 347.00,27.38 358.97,16.22 371.78,5.25 385.47,-5.49 400.12,-15.94 415.78,-26.04 432.52,-35.73 450.38,-44.96 469.42,-53.68 489.71,-61.83 511.31,-69.35" />
    <polyline
       id="polyline5599"
       style="stroke-width:0.2;stroke:url(#linearGradient2447);fill:none;stroke-opacity:1;fill-opacity:1"
       points="-103.70,6.79 -78.46,31.30 -54.69,53.90 -32.31,74.65 -11.27,93.60 8.49,110.80 27.03,126.31 44.41,140.17 60.68,152.45 75.91,163.19 90.15,172.44 103.47,180.26 115.92,186.71 127.55,191.82 138.44,195.66 148.63,198.28 158.19,199.72 167.17,200.05 175.64,199.31 183.65,197.56 191.26,194.85 198.53,191.23 205.52,186.76 212.28,181.48 218.89,175.45 225.38,168.72 231.83,161.35 238.30,153.38 244.83,144.87 251.50,135.87 258.35,126.44 265.45,116.62 272.86,106.47 280.63,96.04 288.82,85.39 297.50,74.56 306.72,63.61 316.54,52.59 327.01,41.55 338.21,30.55 350.18,19.63 362.98,8.86 376.68,-1.72 391.33,-12.06 406.99,-22.10 423.72,-31.79 441.58,-41.08 460.63,-49.91 480.92,-58.23 502.52,-66.00" />
    <polyline
       id="polyline5601"
       style="stroke-width:0.2;stroke:url(#linearGradient2447);fill:none;stroke-opacity:1;fill-opacity:1"
       points="-111.92,3.88 -86.69,27.58 -62.91,49.47 -40.53,69.59 -19.49,88.00 0.27,104.74 18.81,119.87 36.19,133.42 52.46,145.46 67.69,156.02 81.93,165.17 95.25,172.94 107.69,179.39 119.33,184.56 130.21,188.51 140.41,191.29 149.96,192.93 158.95,193.50 167.41,193.04 175.42,191.60 183.03,189.23 190.30,185.98 197.29,181.89 204.06,177.02 210.66,171.42 217.16,165.13 223.61,158.20 230.08,150.69 236.61,142.64 243.27,134.10 250.13,125.12 257.23,115.75 264.64,106.03 272.41,96.03 280.60,85.77 289.28,75.33 298.50,64.74 308.32,54.05 318.79,43.31 329.99,32.58 341.96,21.89 354.76,11.31 368.46,0.87 383.11,-9.37 398.77,-19.36 415.50,-29.06 433.36,-38.41 452.41,-47.37 472.70,-55.89 494.30,-63.91" />
    <polyline
       id="polyline5603"
       style="stroke-width:0.2;stroke:url(#linearGradient2447);fill:none;stroke-opacity:1;fill-opacity:1"
       points="-119.61,0.36 -94.37,23.24 -70.60,44.41 -48.22,63.89 -27.18,81.75 -7.42,98.01 11.12,112.74 28.50,125.97 44.77,137.76 60.00,148.14 74.24,157.16 87.56,164.87 100.01,171.31 111.64,176.54 122.53,180.58 132.72,183.50 142.28,185.34 151.26,186.13 159.73,185.94 167.74,184.80 175.35,182.75 182.62,179.85 189.61,176.15 196.37,171.67 202.98,166.48 209.47,160.62 215.92,154.13 222.39,147.06 228.92,139.46 235.59,131.36 242.44,122.82 249.54,113.88 256.95,104.59 264.72,94.99 272.91,85.14 281.59,75.06 290.81,64.82 300.63,54.45 311.10,44.00 322.30,33.52 334.27,23.05 347.07,12.64 360.77,2.34 375.42,-7.81 391.08,-17.77 407.81,-27.49 425.67,-36.92 444.72,-46.02 465.01,-54.74 486.61,-63.03" />
    <polyline
       id="polyline5605"
       style="stroke-width:0.2;stroke:url(#linearGradient2447);fill:none;stroke-opacity:1;fill-opacity:1"
       points="-126.79,-3.75 -101.56,18.31 -77.78,38.74 -55.40,57.58 -34.36,74.87 -14.60,90.65 3.94,104.97 21.31,117.87 37.59,129.39 52.82,139.57 67.06,148.46 80.37,156.09 92.82,162.52 104.46,167.78 115.34,171.91 125.53,174.96 135.09,176.97 144.07,177.99 152.54,178.04 160.55,177.19 168.16,175.46 175.43,172.91 182.42,169.56 189.19,165.48 195.79,160.69 202.29,155.24 208.74,149.18 215.20,142.54 221.74,135.36 228.40,127.70 235.26,119.59 242.36,111.07 249.76,102.20 257.53,93.00 265.73,83.52 274.41,73.80 283.62,63.89 293.44,53.83 303.92,43.66 315.11,33.43 327.08,23.16 339.89,12.92 353.59,2.74 368.24,-7.34 383.90,-17.28 400.63,-27.03 418.49,-36.55 437.53,-45.80 457.83,-54.74 479.42,-63.32" />
    <polyline
       id="polyline5607"
       style="stroke-width:0.2;stroke:url(#linearGradient2447);fill:none;stroke-opacity:1;fill-opacity:1"
       points="-133.51,-8.39 -108.28,12.83 -84.50,32.51 -62.12,50.69 -41.08,67.40 -21.32,82.68 -2.78,96.58 14.60,109.13 30.87,120.38 46.10,130.35 60.34,139.09 73.66,146.64 86.10,153.04 97.74,158.33 108.62,162.54 118.81,165.71 128.37,167.88 137.36,169.10 145.82,169.40 153.83,168.82 161.44,167.40 168.71,165.17 175.70,162.18 182.47,158.47 189.07,154.07 195.57,149.03 202.02,143.38 208.48,137.16 215.02,130.41 221.68,123.17 228.54,115.47 235.64,107.37 243.04,98.89 250.82,90.08 259.01,80.97 267.69,71.60 276.91,62.01 286.72,52.25 297.20,42.35 308.39,32.34 320.36,22.27 333.17,12.18 346.87,2.11 361.52,-7.91 377.18,-17.84 393.91,-27.63 411.77,-37.25 430.82,-46.66 451.11,-55.83 472.71,-64.70" />
    <polyline
       id="polyline5609"
       style="stroke-width:0.2;stroke:url(#linearGradient2447);fill:none;stroke-opacity:1;fill-opacity:1"
       points="-139.80,-13.55 -114.56,6.82 -90.79,25.74 -68.41,43.25 -47.37,59.37 -27.60,74.15 -9.07,87.62 8.31,99.81 24.59,110.77 39.81,120.52 54.06,129.11 67.37,136.56 79.82,142.92 91.45,148.22 102.34,152.49 112.53,155.78 122.09,158.11 131.07,159.52 139.54,160.05 147.55,159.73 155.16,158.60 162.43,156.70 169.42,154.05 176.19,150.70 182.79,146.68 189.29,142.03 195.74,136.78 202.20,130.97 208.74,124.63 215.40,117.80 222.25,110.52 229.35,102.81 236.76,94.72 244.53,86.28 252.73,77.53 261.40,68.50 270.62,59.23 280.44,49.75 290.92,40.10 302.11,30.32 314.08,20.43 326.88,10.48 340.58,0.51 355.23,-9.46 370.89,-19.39 387.63,-29.24 405.49,-38.97 424.53,-48.56 444.82,-57.96 466.42,-67.14" />
    <polyline
       id="polyline5611"
       style="stroke-width:0.2;stroke:url(#linearGradient2447);fill:none;stroke-opacity:1;fill-opacity:1"
       points="-145.68,-19.18 -120.45,0.33 -96.67,18.48 -74.29,35.30 -53.25,50.83 -33.49,65.09 -14.95,78.12 2.43,89.94 18.70,100.60 33.93,110.12 48.17,118.54 61.49,125.89 73.93,132.20 85.57,137.50 96.45,141.83 106.65,145.21 116.20,147.68 125.19,149.28 133.65,150.03 141.66,149.96 149.27,149.12 156.54,147.52 163.53,145.21 170.30,142.21 176.90,138.56 183.40,134.29 189.85,129.43 196.32,124.02 202.85,118.08 209.52,111.65 216.37,104.76 223.47,97.44 230.88,89.73 238.65,81.66 246.84,73.25 255.52,64.55 264.74,55.58 274.56,46.38 285.03,36.97 296.23,27.40 308.20,17.69 321.00,7.87 334.70,-2.02 349.35,-11.95 365.01,-21.88 381.74,-31.80 399.60,-41.66 418.65,-51.42 438.94,-61.07 460.54,-70.57" />
    <polyline
       id="polyline5613"
       style="stroke-width:0.2;stroke:url(#linearGradient2447);fill:none;stroke-opacity:1;fill-opacity:1"
       points="-151.20,-25.26 -125.97,-6.62 -102.19,10.75 -79.81,26.88 -58.77,41.80 -39.01,55.53 -20.47,68.11 -3.09,79.55 13.18,89.91 28.41,99.19 42.65,107.43 55.97,114.66 68.41,120.91 80.05,126.20 90.93,130.57 101.13,134.05 110.69,136.65 119.67,138.42 128.14,139.38 136.15,139.56 143.76,138.98 151.03,137.69 158.02,135.70 164.78,133.04 171.38,129.75 177.88,125.85 184.33,121.37 190.80,116.35 197.33,110.80 204.00,104.76 210.85,98.25 217.95,91.32 225.36,83.97 233.13,76.25 241.32,68.19 250.00,59.80 259.22,51.12 269.04,42.18 279.51,33.01 290.71,23.64 302.68,14.09 315.48,4.40 329.18,-5.42 343.83,-15.32 359.49,-25.27 376.22,-35.26 394.08,-45.25 413.13,-55.22 433.42,-65.13 455.02,-74.95" />
    <polyline
       id="polyline5615"
       style="stroke-width:0.2;stroke:url(#linearGradient2447);fill:none;stroke-opacity:1;fill-opacity:1"
       points="-156.39,-31.75 -131.15,-13.99 -107.38,2.59 -85.00,18.02 -63.96,32.32 -44.19,45.51 -25.65,57.63 -8.28,68.69 8.00,78.72 23.22,87.75 37.47,95.81 50.78,102.91 63.23,109.09 74.86,114.37 85.75,118.77 95.94,122.32 105.50,125.05 114.48,126.98 122.95,128.14 130.96,128.55 138.57,128.24 145.84,127.24 152.83,125.56 159.60,123.24 166.20,120.29 172.70,116.76 179.15,112.65 185.61,108.00 192.15,102.83 198.81,97.17 205.66,91.04 212.76,84.47 220.17,77.49 227.94,70.11 236.14,62.37 244.81,54.29 254.03,45.90 263.85,37.21 274.33,28.27 285.52,19.08 297.49,9.69 310.30,0.11 323.99,-9.64 338.64,-19.52 354.31,-29.51 371.04,-39.58 388.90,-49.72 407.94,-59.88 428.24,-70.06 449.83,-80.22" />
    <polyline
       id="polyline5617"
       style="stroke-width:0.2;stroke:url(#linearGradient2447);fill:none;stroke-opacity:1;fill-opacity:1"
       points="-161.27,-38.61 -136.04,-21.74 -112.26,-5.96 -89.88,8.76 -68.84,22.42 -49.08,35.07 -30.54,46.71 -13.17,57.38 3.11,67.08 18.34,75.86 32.58,83.71 45.89,90.68 58.34,96.78 69.98,102.03 80.86,106.46 91.05,110.08 100.61,112.93 109.59,115.01 118.06,116.36 126.07,116.99 133.68,116.94 140.95,116.21 147.94,114.84 154.71,112.84 161.31,110.23 167.81,107.05 174.26,103.30 180.72,99.02 187.26,94.22 193.92,88.93 200.77,83.17 207.88,76.96 215.28,70.33 223.05,63.29 231.25,55.86 239.93,48.08 249.14,39.96 258.96,31.52 269.44,22.79 280.63,13.78 292.60,4.53 305.41,-4.95 319.11,-14.63 333.76,-24.50 349.42,-34.53 366.15,-44.70 384.01,-54.99 403.05,-65.37 423.35,-75.83 444.94,-86.33" />
    <polyline
       id="polyline5619"
       style="stroke-width:0.2;stroke:url(#linearGradient2447);fill:none;stroke-opacity:1;fill-opacity:1"
       points="-165.90,-45.82 -140.67,-29.85 -116.89,-14.87 -94.51,-0.88 -73.47,12.15 -53.71,24.24 -35.17,35.40 -17.79,45.66 -1.52,55.03 13.71,63.53 27.95,71.19 41.27,78.01 53.71,84.02 65.35,89.23 76.24,93.67 86.43,97.36 95.99,100.31 104.97,102.54 113.44,104.07 121.45,104.92 129.06,105.11 136.33,104.65 143.32,103.57 150.08,101.88 156.69,99.61 163.18,96.77 169.63,93.37 176.10,89.45 182.63,85.02 189.30,80.09 196.15,74.68 203.25,68.83 210.66,62.53 218.43,55.81 226.62,48.70 235.30,41.20 244.52,33.35 254.34,25.15 264.81,16.62 276.01,7.79 287.98,-1.33 300.78,-10.72 314.48,-20.35 329.13,-30.22 344.79,-40.30 361.52,-50.58 379.38,-61.02 398.43,-71.63 418.72,-82.37 440.32,-93.23" />
    <polyline
       id="polyline5621"
       style="stroke-width:0.2;stroke:url(#linearGradient2447);fill:none;stroke-opacity:1;fill-opacity:1"
       points="-170.29,-53.34 -145.06,-38.28 -121.28,-24.12 -98.90,-10.85 -77.86,1.53 -58.10,13.05 -39.56,23.73 -22.18,33.57 -5.91,42.60 9.32,50.82 23.56,58.26 36.87,64.93 49.32,70.84 60.96,76.01 71.84,80.46 82.03,84.20 91.59,87.24 100.58,89.61 109.04,91.31 117.05,92.37 124.66,92.79 131.93,92.60 138.92,91.80 145.69,90.42 152.29,88.47 158.79,85.96 165.24,82.91 171.70,79.34 178.24,75.26 184.90,70.68 191.76,65.63 198.86,60.11 206.26,54.15 214.04,47.75 222.23,40.93 230.91,33.72 240.13,26.12 249.94,18.14 260.42,9.81 271.61,1.14 283.58,-7.85 296.39,-17.15 310.09,-26.75 324.74,-36.62 340.40,-46.76 357.13,-57.15 374.99,-67.77 394.04,-78.60 414.33,-89.64 435.93,-100.86" />
    <polyline
       id="polyline5623"
       style="stroke-width:0.2;stroke:url(#linearGradient2447);fill:none;stroke-opacity:1;fill-opacity:1"
       points="-174.49,-61.14 -149.26,-46.99 -125.48,-33.66 -103.10,-21.13 -82.06,-9.40 -62.30,1.55 -43.76,11.73 -26.38,21.15 -10.11,29.82 5.12,37.76 19.36,44.98 32.68,51.48 45.12,57.29 56.76,62.41 67.64,66.85 77.84,70.64 87.39,73.77 96.38,76.26 104.84,78.13 112.85,79.38 120.46,80.03 127.74,80.09 134.72,79.58 141.49,78.49 148.09,76.85 154.59,74.67 161.04,71.96 167.51,68.73 174.04,64.99 180.71,60.76 187.56,56.05 194.66,50.86 202.07,45.22 209.84,39.13 218.03,32.61 226.71,25.66 235.93,18.31 245.75,10.56 256.22,2.42 267.42,-6.10 279.39,-14.97 292.19,-24.20 305.89,-33.77 320.54,-43.66 336.20,-53.86 352.93,-64.37 370.79,-75.17 389.84,-86.24 410.13,-97.58 431.73,-109.18" />
    <polyline
       id="polyline5625"
       style="stroke-width:0.2;stroke:url(#linearGradient2447);fill:none;stroke-opacity:1;fill-opacity:1"
       points="-178.53,-69.18 -153.29,-55.95 -129.51,-43.45 -107.14,-31.67 -86.09,-20.60 -66.33,-10.23 -47.79,-0.56 -30.42,8.43 -14.14,16.74 1.08,24.39 15.33,31.37 28.64,37.71 41.09,43.40 52.72,48.46 63.61,52.89 73.80,56.71 83.36,59.93 92.34,62.54 100.81,64.56 108.82,66.01 116.43,66.88 123.70,67.18 130.69,66.93 137.46,66.14 144.06,64.80 150.56,62.94 157.01,60.56 163.47,57.66 170.01,54.26 176.67,50.37 183.52,45.99 190.62,41.13 198.03,35.80 205.80,30.01 214.00,23.77 222.67,17.09 231.89,9.98 241.71,2.43 252.19,-5.52 263.38,-13.89 275.35,-22.66 288.16,-31.82 301.85,-41.36 316.50,-51.27 332.17,-61.55 348.90,-72.19 366.76,-83.17 385.80,-94.49 406.10,-106.14 427.69,-118.12" />
    <polyline
       id="polyline5627"
       style="stroke-width:0.2;stroke:url(#linearGradient2447);fill:none;stroke-opacity:1;fill-opacity:1"
       points="-182.43,-77.43 -157.20,-65.13 -133.42,-53.47 -111.04,-42.45 -90.00,-32.04 -70.24,-22.27 -51.70,-13.11 -34.32,-4.56 -18.05,3.39 -2.82,10.73 11.42,17.48 24.74,23.64 37.18,29.21 48.82,34.20 59.70,38.62 69.89,42.47 79.45,45.75 88.44,48.48 96.90,50.65 104.91,52.28 112.52,53.36 119.79,53.91 126.78,53.92 133.55,53.40 140.15,52.37 146.65,50.82 153.10,48.75 159.56,46.18 166.10,43.11 172.76,39.55 179.62,35.49 186.72,30.95 194.12,25.93 201.90,20.44 210.09,14.48 218.77,8.05 227.99,1.17 237.80,-6.17 248.28,-13.96 259.47,-22.18 271.44,-30.85 284.25,-39.95 297.95,-49.47 312.60,-59.42 328.26,-69.78 344.99,-80.55 362.85,-91.73 381.90,-103.30 402.19,-115.28 423.79,-127.64" />
    <polyline
       id="polyline5629"
       style="stroke-width:0.2;stroke:url(#linearGradient2447);fill:none;stroke-opacity:1;fill-opacity:1"
       points="-186.24,-85.86 -161.01,-74.50 -137.23,-63.68 -114.85,-53.42 -93.81,-43.69 -74.05,-34.51 -55.51,-25.87 -38.14,-17.76 -21.86,-10.20 -6.63,-3.16 7.61,3.34 20.92,9.31 33.37,14.76 45.01,19.68 55.89,24.07 66.08,27.94 75.64,31.29 84.62,34.12 93.09,36.44 101.10,38.24 108.71,39.53 115.98,40.30 122.97,40.57 129.74,40.33 136.34,39.58 142.84,38.34 149.29,36.59 155.75,34.34 162.29,31.59 168.95,28.35 175.80,24.61 182.91,20.38 190.31,15.66 198.08,10.45 206.28,4.76 214.96,-1.42 224.17,-8.08 233.99,-15.22 244.47,-22.84 255.66,-30.93 267.63,-39.50 280.44,-48.54 294.14,-58.06 308.79,-68.04 324.45,-78.49 341.18,-89.41 359.04,-100.78 378.08,-112.62 398.38,-124.92 419.97,-137.68" />
    <polyline
       id="polyline5631"
       style="stroke-width:0.2;stroke:url(#linearGradient2447);fill:none;stroke-opacity:1;fill-opacity:1"
       points="-190.00,-94.43 -164.76,-84.01 -140.99,-74.05 -118.61,-64.55 -97.56,-55.51 -77.80,-46.93 -59.26,-38.82 -41.89,-31.16 -25.61,-23.98 -10.39,-17.26 3.86,-11.01 17.17,-5.23 29.62,0.08 41.25,4.92 52.14,9.28 62.33,13.17 71.89,16.58 80.87,19.51 89.34,21.96 97.35,23.93 104.96,25.42 112.23,26.42 119.22,26.93 125.99,26.96 132.59,26.50 139.09,25.55 145.54,24.10 152.00,22.17 158.54,19.74 165.20,16.81 172.05,13.38 179.15,9.46 186.56,5.03 194.33,0.11 202.53,-5.32 211.20,-11.26 220.42,-17.70 230.24,-24.65 240.72,-32.11 251.91,-40.08 263.88,-48.56 276.69,-57.56 290.38,-67.07 305.03,-77.10 320.70,-87.64 337.43,-98.71 355.29,-110.29 374.33,-122.40 394.63,-135.03 416.22,-148.19" />
    <polyline
       id="polyline5633"
       style="stroke-width:0.2;stroke:url(#linearGradient2447);fill:none;stroke-opacity:1;fill-opacity:1"
       points="-193.72,-103.11 -168.49,-93.64 -144.71,-84.54 -122.33,-75.82 -101.29,-67.47 -81.53,-59.50 -62.99,-51.91 -45.61,-44.72 -29.34,-37.92 -14.11,-31.52 0.13,-25.53 13.45,-19.94 25.89,-14.78 37.53,-10.03 48.41,-5.70 58.61,-1.80 68.16,1.66 77.15,4.68 85.61,7.26 93.62,9.39 101.23,11.07 108.51,12.29 115.49,13.05 122.26,13.34 128.86,13.15 135.36,12.49 141.81,11.35 148.28,9.72 154.81,7.60 161.48,4.98 168.33,1.86 175.43,-1.77 182.84,-5.91 190.61,-10.56 198.80,-15.73 207.48,-21.43 216.70,-27.66 226.52,-34.43 236.99,-41.73 248.19,-49.58 260.16,-57.98 272.96,-66.94 286.66,-76.45 301.31,-86.53 316.97,-97.18 333.70,-108.40 351.56,-120.20 370.61,-132.58 390.90,-145.55 412.50,-159.12" />
    <polyline
       id="polyline5635"
       style="stroke-width:0.2;stroke:url(#linearGradient2447);fill:none;stroke-opacity:1;fill-opacity:1"
       points="-197.45,-111.86 -172.22,-103.35 -148.44,-95.12 -126.06,-87.17 -105.02,-79.52 -85.26,-72.16 -66.72,-65.12 -49.34,-58.39 -33.07,-51.98 -17.84,-45.91 -3.60,-40.18 9.72,-34.80 22.16,-29.78 33.80,-25.13 44.68,-20.84 54.87,-16.94 64.43,-13.44 73.42,-10.33 81.88,-7.62 89.89,-5.34 97.50,-3.47 104.77,-2.04 111.76,-1.05 118.53,-0.50 125.13,-0.41 131.63,-0.79 138.08,-1.64 144.54,-2.97 151.08,-4.78 157.74,-7.10 164.60,-9.92 171.70,-13.25 179.10,-17.11 186.88,-21.49 195.07,-26.42 203.75,-31.89 212.97,-37.91 222.78,-44.50 233.26,-51.66 244.45,-59.39 256.42,-67.72 269.23,-76.64 282.93,-86.16 297.58,-96.29 313.24,-107.05 329.97,-118.43 347.83,-130.45 366.88,-143.12 387.17,-156.43 408.77,-170.41" />
    <polyline
       id="polyline5637"
       style="stroke-width:0.2;stroke:url(#linearGradient2447);fill:none;stroke-opacity:1;fill-opacity:1"
       points="-201.22,-120.66 -175.99,-113.12 -152.21,-105.76 -129.83,-98.59 -108.79,-91.64 -89.03,-84.90 -70.49,-78.40 -53.12,-72.14 -36.84,-66.14 -21.61,-60.40 -7.37,-54.94 5.94,-49.77 18.39,-44.90 30.02,-40.34 40.91,-36.11 51.10,-32.21 60.66,-28.66 69.64,-25.47 78.11,-22.65 86.12,-20.21 93.73,-18.16 101.00,-16.52 107.99,-15.30 114.76,-14.51 121.36,-14.15 127.86,-14.25 134.31,-14.81 140.77,-15.84 147.31,-17.36 153.97,-19.38 160.82,-21.90 167.92,-24.95 175.33,-28.53 183.10,-32.65 191.30,-37.33 199.98,-42.58 209.19,-48.40 219.01,-54.81 229.49,-61.83 240.68,-69.46 252.65,-77.71 265.46,-86.60 279.15,-96.14 293.80,-106.34 309.47,-117.21 326.20,-128.76 344.06,-141.00 363.10,-153.95 383.40,-167.62 404.99,-182.02" />
    <polyline
       id="polyline5639"
       style="stroke-width:0.2;stroke:url(#linearGradient2447);fill:none;stroke-opacity:1;fill-opacity:1"
       points="-205.07,-129.47 -179.84,-122.89 -156.06,-116.41 -133.68,-110.03 -112.64,-103.79 -92.88,-97.68 -74.34,-91.72 -56.96,-85.94 -40.69,-80.34 -25.46,-74.94 -11.22,-69.75 2.09,-64.79 14.54,-60.08 26.18,-55.63 37.06,-51.45 47.25,-47.56 56.81,-43.97 65.80,-40.71 74.26,-37.77 82.27,-35.19 89.88,-32.97 97.15,-31.13 104.14,-29.68 110.91,-28.64 117.51,-28.02 124.01,-27.84 130.46,-28.12 136.92,-28.86 143.46,-30.09 150.12,-31.81 156.98,-34.05 164.08,-36.81 171.48,-40.12 179.26,-43.99 187.45,-48.43 196.13,-53.45 205.35,-59.08 215.16,-65.33 225.64,-72.21 236.83,-79.73 248.80,-87.92 261.61,-96.79 275.31,-106.34 289.96,-116.61 305.62,-127.59 322.35,-139.32 340.21,-151.79 359.26,-165.04 379.55,-179.06 401.15,-193.88" />
    <polyline
       id="polyline5641"
       style="stroke-width:0.2;stroke:url(#linearGradient2447);fill:none;stroke-opacity:1;fill-opacity:1"
       points="-209.03,-138.25 -183.80,-132.65 -160.02,-127.05 -137.64,-121.47 -116.60,-115.93 -96.84,-110.45 -78.30,-105.05 -60.92,-99.74 -44.65,-94.55 -29.42,-89.50 -15.18,-84.59 -1.86,-79.85 10.58,-75.30 22.22,-70.96 33.10,-66.83 43.30,-62.96 52.86,-59.34 61.84,-56.00 70.31,-52.96 78.32,-50.23 85.93,-47.84 93.20,-45.80 100.19,-44.13 106.95,-42.85 113.55,-41.98 120.05,-41.53 126.50,-41.53 132.97,-41.99 139.50,-42.92 146.17,-44.36 153.02,-46.31 160.12,-48.80 167.53,-51.84 175.30,-55.46 183.49,-59.66 192.17,-64.47 201.39,-69.91 211.21,-75.99 221.68,-82.74 232.88,-90.17 244.85,-98.29 257.65,-107.14 271.35,-116.72 286.00,-127.06 301.66,-138.17 318.39,-150.07 336.25,-162.78 355.30,-176.32 375.59,-190.70 397.19,-205.95" />
    <polyline
       id="polyline5643"
       style="stroke-width:0.2;stroke:url(#linearGradient2447);fill:none;stroke-opacity:1;fill-opacity:1"
       points="-213.13,-146.98 -187.90,-142.35 -164.12,-137.64 -141.74,-132.85 -120.70,-128.03 -100.94,-123.19 -82.40,-118.34 -65.02,-113.52 -48.75,-108.75 -33.52,-104.03 -19.28,-99.41 -5.96,-94.90 6.48,-90.51 18.12,-86.28 29.01,-82.22 39.20,-78.36 48.76,-74.72 57.74,-71.31 66.21,-68.17 74.22,-65.30 81.83,-62.75 89.10,-60.51 96.09,-58.63 102.85,-57.11 109.46,-55.98 115.95,-55.27 122.40,-54.99 128.87,-55.17 135.40,-55.82 142.07,-56.97 148.92,-58.65 156.02,-60.86 163.43,-63.64 171.20,-67.01 179.39,-70.98 188.07,-75.58 197.29,-80.83 207.11,-86.76 217.58,-93.38 228.78,-100.71 240.75,-108.78 253.55,-117.61 267.25,-127.22 281.90,-137.63 297.56,-148.87 314.29,-160.95 332.15,-173.90 351.20,-187.74 371.49,-202.49 393.09,-218.17" />
    <polyline
       id="polyline5645"
       style="stroke-width:0.2;stroke:url(#linearGradient2447);fill:none;stroke-opacity:1;fill-opacity:1"
       points="-217.40,-155.62 -192.17,-151.97 -168.39,-148.14 -146.02,-144.16 -124.97,-140.06 -105.21,-135.85 -86.67,-131.57 -69.30,-127.24 -53.02,-122.88 -37.79,-118.52 -23.55,-114.18 -10.24,-109.89 2.21,-105.68 13.84,-101.57 24.73,-97.57 34.92,-93.73 44.48,-90.07 53.46,-86.60 61.93,-83.35 69.94,-80.36 77.55,-77.64 84.82,-75.21 91.81,-73.12 98.58,-71.37 105.18,-69.99 111.68,-69.02 118.13,-68.47 124.59,-68.37 131.13,-68.74 137.79,-69.61 144.64,-71.01 151.74,-72.96 159.15,-75.48 166.92,-78.60 175.12,-82.34 183.79,-86.74 193.01,-91.81 202.83,-97.58 213.31,-104.07 224.50,-111.31 236.47,-119.33 249.28,-128.15 262.97,-137.79 277.62,-148.29 293.29,-159.65 310.02,-171.92 327.88,-185.11 346.92,-199.26 367.22,-214.37 388.81,-230.49" />
    <polyline
       id="polyline5647"
       style="stroke-width:0.2;stroke:url(#linearGradient2447);fill:none;stroke-opacity:1;fill-opacity:1"
       points="-221.89,-164.13 -196.66,-161.47 -172.88,-158.53 -150.50,-155.36 -129.46,-151.98 -109.70,-148.41 -91.16,-144.70 -73.78,-140.85 -57.51,-136.92 -42.28,-132.91 -28.04,-128.86 -14.72,-124.81 -2.28,-120.77 9.36,-116.77 20.24,-112.85 30.43,-109.03 39.99,-105.35 48.98,-101.82 57.44,-98.48 65.45,-95.35 73.06,-92.47 80.33,-89.86 87.32,-87.56 94.09,-85.58 100.69,-83.96 107.19,-82.73 113.64,-81.91 120.10,-81.53 126.64,-81.63 133.30,-82.23 140.16,-83.35 147.26,-85.03 154.66,-87.30 162.44,-90.18 170.63,-93.70 179.31,-97.89 188.53,-102.78 198.34,-108.40 208.82,-114.77 220.01,-121.93 231.98,-129.90 244.79,-138.71 258.49,-148.39 273.14,-158.97 288.80,-170.47 305.53,-182.92 323.39,-196.36 342.44,-210.81 362.73,-226.30 384.33,-242.86" />
    <polyline
       id="polyline5649"
       style="stroke-width:0.2;stroke:url(#linearGradient2447);fill:none;stroke-opacity:1;fill-opacity:1"
       points="-226.62,-172.49 -201.39,-170.81 -177.61,-168.77 -155.23,-166.41 -134.19,-163.75 -114.43,-160.83 -95.89,-157.68 -78.51,-154.33 -62.24,-150.82 -47.01,-147.17 -32.77,-143.42 -19.46,-139.60 -7.01,-135.73 4.63,-131.86 15.51,-128.01 25.70,-124.22 35.26,-120.52 44.24,-116.93 52.71,-113.50 60.72,-110.25 68.33,-107.21 75.60,-104.42 82.59,-101.91 89.36,-99.71 95.96,-97.84 102.46,-96.36 108.91,-95.27 115.37,-94.63 121.91,-94.45 128.57,-94.77 135.43,-95.63 142.53,-97.05 149.93,-99.06 157.70,-101.70 165.90,-105.00 174.58,-109.00 183.79,-113.71 193.61,-119.18 204.09,-125.44 215.28,-132.51 227.25,-140.43 240.06,-149.24 253.76,-158.96 268.41,-169.62 284.07,-181.26 300.80,-193.91 318.66,-207.60 337.71,-222.36 358.00,-238.22 379.59,-255.23" />
    <polyline
       id="polyline5651"
       style="stroke-width:0.2;stroke:url(#linearGradient2447);fill:none;stroke-opacity:1;fill-opacity:1"
       points="-231.63,-180.65 -206.40,-179.96 -182.62,-178.82 -160.24,-177.27 -139.20,-175.34 -119.44,-173.07 -100.90,-170.49 -83.52,-167.64 -67.25,-164.56 -52.02,-161.27 -37.78,-157.81 -24.47,-154.22 -12.02,-150.54 -0.38,-146.80 10.50,-143.02 20.69,-139.26 30.25,-135.54 39.23,-131.91 47.70,-128.38 55.71,-125.01 63.32,-121.82 70.59,-118.84 77.58,-116.13 84.35,-113.70 90.95,-111.60 97.45,-109.86 103.90,-108.52 110.36,-107.60 116.90,-107.16 123.56,-107.21 130.42,-107.80 137.52,-108.96 144.92,-110.72 152.69,-113.13 160.89,-116.21 169.57,-120.01 178.79,-124.55 188.60,-129.87 199.08,-136.01 210.27,-143.01 222.24,-150.89 235.05,-159.69 248.75,-169.45 263.40,-180.20 279.06,-191.98 295.79,-204.83 313.65,-218.77 332.70,-233.84 352.99,-250.08 374.59,-267.53" />
    <polyline
       id="polyline5653"
       style="stroke-width:0.2;stroke:url(#linearGradient2447);fill:none;stroke-opacity:1;fill-opacity:1"
       points="-236.95,-188.59 -211.72,-188.89 -187.94,-188.66 -165.57,-187.92 -144.52,-186.72 -124.76,-185.10 -106.22,-183.09 -88.85,-180.74 -72.57,-178.09 -57.34,-175.16 -43.10,-172.00 -29.79,-168.65 -17.34,-165.15 -5.71,-161.53 5.18,-157.84 15.37,-154.11 24.93,-150.38 33.91,-146.69 42.38,-143.08 50.39,-139.58 58.00,-136.24 65.27,-133.09 72.26,-130.18 79.03,-127.53 85.63,-125.19 92.13,-123.20 98.58,-121.60 105.04,-120.42 111.58,-119.70 118.24,-119.48 125.09,-119.81 132.19,-120.71 139.60,-122.23 147.37,-124.40 155.57,-127.27 164.24,-130.87 173.46,-135.24 183.28,-140.42 193.76,-146.45 204.95,-153.37 216.92,-161.21 229.73,-170.01 243.42,-179.81 258.07,-190.66 273.74,-202.58 290.47,-215.62 308.33,-229.82 327.37,-245.21 347.67,-261.83 369.26,-279.73" />
    <polyline
       id="polyline5655"
       style="stroke-width:0.2;stroke:url(#linearGradient2447);fill:none;stroke-opacity:1;fill-opacity:1"
       points="-242.62,-196.27 -217.39,-197.57 -193.61,-198.23 -171.23,-198.31 -150.19,-197.85 -130.43,-196.88 -111.89,-195.45 -94.52,-193.60 -78.24,-191.37 -63.01,-188.81 -48.77,-185.95 -35.46,-182.85 -23.01,-179.53 -11.37,-176.04 -0.49,-172.43 9.70,-168.73 19.26,-164.99 28.24,-161.25 36.71,-157.55 44.72,-153.94 52.33,-150.45 59.60,-147.12 66.59,-144.01 73.36,-141.14 79.96,-138.57 86.46,-136.33 92.91,-134.47 99.37,-133.03 105.91,-132.04 112.57,-131.56 119.43,-131.62 126.53,-132.27 133.93,-133.54 141.70,-135.49 149.90,-138.14 158.58,-141.55 167.79,-145.75 177.61,-150.79 188.09,-156.71 199.28,-163.54 211.25,-171.34 224.06,-180.15 237.76,-190.00 252.41,-200.94 268.07,-213.01 284.80,-226.24 302.66,-240.70 321.70,-256.41 342.00,-273.41 363.59,-291.76" />
    <polyline
       id="polyline5657"
       style="stroke-width:0.2;stroke:url(#linearGradient2447);fill:none;stroke-opacity:1;fill-opacity:1"
       points="-248.67,-203.67 -223.44,-205.96 -199.66,-207.53 -177.28,-208.42 -156.24,-208.69 -136.48,-208.38 -117.94,-207.52 -100.56,-206.17 -84.29,-204.38 -69.06,-202.18 -54.82,-199.63 -41.51,-196.76 -29.06,-193.63 -17.42,-190.28 -6.54,-186.75 3.65,-183.08 13.21,-179.34 22.20,-175.55 30.66,-171.76 38.67,-168.03 46.28,-164.39 53.55,-160.89 60.54,-157.58 67.31,-154.50 73.91,-151.69 80.41,-149.21 86.86,-147.09 93.32,-145.38 99.86,-144.14 106.52,-143.39 113.38,-143.19 120.48,-143.58 127.88,-144.61 135.66,-146.33 143.85,-148.77 152.53,-151.98 161.75,-156.02 171.56,-160.92 182.04,-166.73 193.23,-173.49 205.20,-181.25 218.01,-190.06 231.71,-199.96 246.36,-210.99 262.02,-223.21 278.75,-236.65 296.61,-251.36 315.66,-267.39 335.95,-284.77 357.55,-303.57" />
    <polyline
       id="polyline5659"
       style="stroke-width:0.2;stroke:url(#linearGradient2447);fill:none;stroke-opacity:1;fill-opacity:1"
       points="-255.13,-210.73 -229.90,-214.02 -206.12,-216.49 -183.75,-218.21 -162.70,-219.21 -142.94,-219.55 -124.40,-219.28 -107.03,-218.43 -90.75,-217.07 -75.52,-215.24 -61.28,-212.99 -47.97,-210.37 -35.52,-207.42 -23.89,-204.20 -13.00,-200.75 -2.81,-197.13 6.75,-193.37 15.73,-189.54 24.20,-185.67 32.21,-181.82 39.82,-178.04 47.09,-174.36 54.08,-170.86 60.85,-167.56 67.45,-164.52 73.95,-161.79 80.40,-159.42 86.86,-157.45 93.40,-155.93 100.06,-154.92 106.91,-154.46 114.01,-154.60 121.42,-155.39 129.19,-156.88 137.39,-159.11 146.06,-162.14 155.28,-166.01 165.10,-170.77 175.58,-176.47 186.77,-183.15 198.74,-190.88 211.55,-199.69 225.24,-209.64 239.89,-220.77 255.56,-233.13 272.29,-246.77 290.15,-261.74 309.19,-278.09 329.49,-295.87 351.08,-315.12" />
    <polyline
       id="polyline5661"
       style="stroke-width:0.2;stroke:url(#linearGradient2447);fill:none;stroke-opacity:1;fill-opacity:1"
       points="-262.05,-217.44 -236.81,-221.72 -213.04,-225.11 -190.66,-227.64 -169.62,-229.38 -149.85,-230.38 -131.31,-230.68 -113.94,-230.34 -97.66,-229.41 -82.44,-227.95 -68.19,-226.00 -54.88,-223.63 -42.43,-220.87 -30.80,-217.78 -19.91,-214.41 -9.72,-210.83 -0.16,-207.06 8.82,-203.18 17.29,-199.23 25.30,-195.27 32.91,-191.34 40.18,-187.49 47.17,-183.79 53.94,-180.27 60.54,-177.00 67.04,-174.03 73.49,-171.40 79.95,-169.17 86.49,-167.40 93.15,-166.12 100.00,-165.40 107.10,-165.29 114.51,-165.84 122.28,-167.10 130.48,-169.12 139.15,-171.96 148.37,-175.66 158.19,-180.28 168.67,-185.87 179.86,-192.49 191.83,-200.18 204.64,-209.00 218.33,-218.99 232.98,-230.22 248.65,-242.73 265.38,-256.58 283.24,-271.81 302.28,-288.48 322.57,-306.64 344.17,-326.34" />
    <polyline
       id="polyline5663"
       style="stroke-width:0.2;stroke:url(#linearGradient2447);fill:none;stroke-opacity:1;fill-opacity:1"
       points="-269.44,-223.76 -244.21,-229.04 -220.43,-233.33 -198.05,-236.68 -177.01,-239.16 -157.25,-240.81 -138.71,-241.69 -121.33,-241.86 -105.06,-241.37 -89.83,-240.27 -75.59,-238.63 -62.27,-236.49 -49.83,-233.92 -38.19,-230.97 -27.30,-227.69 -17.11,-224.14 -7.55,-220.37 1.43,-216.44 9.90,-212.41 17.91,-208.33 25.52,-204.25 32.79,-200.23 39.78,-196.34 46.54,-192.61 53.15,-189.11 59.64,-185.89 66.09,-183.01 72.56,-180.52 79.09,-178.48 85.76,-176.94 92.61,-175.96 99.71,-175.60 107.12,-175.91 114.89,-176.94 123.08,-178.75 131.76,-181.40 140.98,-184.93 150.80,-189.42 161.27,-194.90 172.47,-201.45 184.44,-209.10 197.24,-217.93 210.94,-227.97 225.59,-239.30 241.25,-251.95 257.98,-266.00 275.84,-281.49 294.89,-298.48 315.18,-317.03 336.78,-337.19" />
    <polyline
       id="polyline5665"
       style="stroke-width:0.2;stroke:url(#linearGradient2447);fill:none;stroke-opacity:1;fill-opacity:1"
       points="-277.35,-229.65 -252.11,-235.93 -228.34,-241.13 -205.96,-245.30 -184.92,-248.51 -165.16,-250.82 -146.62,-252.28 -129.24,-252.95 -112.97,-252.89 -97.74,-252.16 -83.49,-250.83 -70.18,-248.94 -57.73,-246.55 -46.10,-243.73 -35.21,-240.54 -25.02,-237.02 -15.46,-233.25 -6.48,-229.28 1.99,-225.16 10.00,-220.96 17.61,-216.74 24.88,-212.55 31.87,-208.46 38.63,-204.51 45.24,-200.78 51.73,-197.32 58.19,-194.18 64.65,-191.43 71.18,-189.13 77.85,-187.33 84.70,-186.09 91.80,-185.48 99.21,-185.54 106.98,-186.35 115.18,-187.95 123.85,-190.41 133.07,-193.78 142.89,-198.13 153.37,-203.51 164.56,-209.98 176.53,-217.60 189.33,-226.43 203.03,-236.52 217.68,-247.94 233.34,-260.75 250.07,-275.00 267.93,-290.75 286.98,-308.06 307.27,-326.99 328.87,-347.60" />
    <polyline
       id="polyline5667"
       style="stroke-width:0.2;stroke:url(#linearGradient2447);fill:none;stroke-opacity:1;fill-opacity:1"
       points="-285.81,-235.09 -260.57,-242.36 -236.80,-248.46 -214.42,-253.46 -193.38,-257.40 -173.61,-260.36 -155.07,-262.40 -137.70,-263.58 -121.42,-263.96 -106.20,-263.60 -91.95,-262.56 -78.64,-260.92 -66.19,-258.72 -54.56,-256.03 -43.67,-252.92 -33.48,-249.44 -23.92,-245.66 -14.94,-241.64 -6.47,-237.44 1.54,-233.13 9.15,-228.76 16.42,-224.40 23.41,-220.11 30.18,-215.95 36.78,-211.99 43.28,-208.28 49.73,-204.89 56.19,-201.88 62.73,-199.31 69.39,-197.25 76.24,-195.75 83.34,-194.89 90.75,-194.71 98.52,-195.29 106.72,-196.68 115.39,-198.95 124.61,-202.15 134.43,-206.36 144.91,-211.63 156.10,-218.03 168.07,-225.61 180.88,-234.45 194.57,-244.59 209.22,-256.11 224.89,-269.07 241.62,-283.52 259.48,-299.53 278.52,-317.16 298.82,-336.48 320.41,-357.54" />
    <polyline
       id="polyline5669"
       style="stroke-width:0.2;stroke:url(#linearGradient2447);fill:none;stroke-opacity:1;fill-opacity:1"
       points="-294.85,-240.03 -269.61,-248.30 -245.84,-255.31 -223.46,-261.12 -202.42,-265.80 -182.66,-269.41 -164.12,-272.03 -146.74,-273.71 -130.47,-274.52 -115.24,-274.53 -101.00,-273.80 -87.68,-272.39 -75.23,-270.38 -63.60,-267.83 -52.71,-264.80 -42.52,-261.36 -32.96,-257.57 -23.98,-253.50 -15.51,-249.22 -7.50,-244.79 0.11,-240.27 7.38,-235.74 14.37,-231.25 21.13,-226.88 27.74,-222.68 34.23,-218.73 40.69,-215.08 47.15,-211.81 53.68,-208.98 60.35,-206.65 67.20,-204.90 74.30,-203.78 81.71,-203.36 89.48,-203.71 97.67,-204.89 106.35,-206.96 115.57,-210.00 125.39,-214.07 135.87,-219.24 147.06,-225.56 159.03,-233.11 171.83,-241.94 185.53,-252.14 200.18,-263.75 215.84,-276.85 232.57,-291.51 250.43,-307.78 269.48,-325.73 289.77,-345.43 311.37,-366.95" />
    <polyline
       id="polyline5671"
       style="stroke-width:0.2;stroke:url(#linearGradient2447);fill:none;stroke-opacity:1;fill-opacity:1"
       points="-304.51,-244.45 -279.27,-253.71 -255.50,-261.62 -233.12,-268.25 -212.08,-273.67 -192.32,-277.94 -173.78,-281.13 -156.40,-283.31 -140.13,-284.55 -124.90,-284.93 -110.65,-284.50 -97.34,-283.33 -84.89,-281.51 -73.26,-279.08 -62.37,-276.14 -52.18,-272.73 -42.62,-268.93 -33.64,-264.82 -25.17,-260.45 -17.16,-255.90 -9.55,-251.24 -2.28,-246.53 4.71,-241.84 11.47,-237.25 18.08,-232.82 24.57,-228.62 31.03,-224.72 37.49,-221.18 44.02,-218.09 50.69,-215.49 57.54,-213.48 64.64,-212.10 72.05,-211.44 79.82,-211.56 88.02,-212.52 96.69,-214.41 105.91,-217.28 115.73,-221.21 126.21,-226.27 137.40,-232.51 149.37,-240.02 162.17,-248.86 175.87,-259.10 190.52,-270.81 206.18,-284.06 222.91,-298.91 240.77,-315.44 259.82,-333.71 280.11,-353.80 301.71,-375.76" />
    <polyline
       id="polyline5673"
       style="stroke-width:0.2;stroke:url(#linearGradient2447);fill:none;stroke-opacity:1;fill-opacity:1"
       points="-314.82,-248.31 -289.59,-258.56 -265.81,-267.38 -243.43,-274.82 -222.39,-280.97 -202.63,-285.89 -184.09,-289.65 -166.71,-292.34 -150.44,-294.01 -135.21,-294.75 -120.97,-294.62 -107.65,-293.70 -95.21,-292.05 -83.57,-289.76 -72.68,-286.89 -62.49,-283.52 -52.93,-279.71 -43.95,-275.55 -35.48,-271.09 -27.47,-266.42 -19.86,-261.61 -12.59,-256.72 -5.60,-251.84 1.16,-247.03 7.77,-242.36 14.26,-237.91 20.71,-233.75 27.18,-229.95 33.71,-226.59 40.38,-223.73 47.23,-221.45 54.33,-219.82 61.74,-218.91 69.51,-218.80 77.70,-219.55 86.38,-221.24 95.60,-223.95 105.42,-227.73 115.89,-232.67 127.09,-238.84 139.06,-246.31 151.86,-255.16 165.56,-265.44 180.21,-277.24 195.87,-290.63 212.60,-305.69 230.46,-322.47 249.51,-341.06 269.80,-361.53 291.40,-383.94" />
    <polyline
       id="polyline5675"
       style="stroke-width:0.2;stroke:url(#linearGradient2447);fill:none;stroke-opacity:1;fill-opacity:1"
       points="-325.81,-251.57 -300.58,-262.82 -276.80,-272.54 -254.43,-280.80 -233.38,-287.67 -213.62,-293.24 -195.08,-297.58 -177.71,-300.76 -161.43,-302.86 -146.20,-303.96 -131.96,-304.13 -118.65,-303.44 -106.20,-301.98 -94.57,-299.82 -83.68,-297.03 -73.49,-293.68 -63.93,-289.87 -54.95,-285.65 -46.48,-281.10 -38.47,-276.31 -30.86,-271.35 -23.59,-266.28 -16.60,-261.20 -9.83,-256.16 -3.23,-251.26 3.27,-246.56 9.72,-242.14 16.18,-238.07 22.72,-234.44 29.38,-231.31 36.23,-228.77 43.33,-226.88 50.74,-225.72 58.51,-225.38 66.71,-225.91 75.38,-227.41 84.60,-229.94 94.42,-233.58 104.90,-238.41 116.09,-244.50 128.06,-251.93 140.87,-260.77 154.56,-271.10 169.21,-283.00 184.88,-296.53 201.61,-311.78 219.47,-328.82 238.51,-347.72 258.81,-368.57 280.40,-391.43" />
    <polyline
       id="polyline5677"
       style="stroke-width:0.2;stroke:url(#linearGradient2447);fill:none;stroke-opacity:1;fill-opacity:1"
       points="-337.53,-254.22 -312.30,-266.45 -288.52,-277.07 -266.14,-286.14 -245.10,-293.74 -225.34,-299.95 -206.80,-304.86 -189.42,-308.54 -173.15,-311.07 -157.92,-312.53 -143.68,-312.99 -130.36,-312.54 -117.92,-311.26 -106.28,-309.22 -95.40,-306.50 -85.20,-303.19 -75.65,-299.35 -66.66,-295.08 -58.20,-290.45 -50.19,-285.53 -42.58,-280.41 -35.31,-275.17 -28.32,-269.88 -21.55,-264.62 -14.95,-259.48 -8.45,-254.52 -2.00,-249.84 4.47,-245.50 11.00,-241.60 17.66,-238.20 24.52,-235.39 31.62,-233.24 39.03,-231.83 46.80,-231.25 54.99,-231.57 63.67,-232.87 72.89,-235.22 82.71,-238.72 93.18,-243.43 104.38,-249.44 116.35,-256.83 129.15,-265.66 142.85,-276.04 157.50,-288.02 173.16,-301.69 189.89,-317.13 207.75,-334.42 226.80,-353.64 247.09,-374.86 268.69,-398.17" />
    <polyline
       id="polyline5679"
       style="stroke-width:0.2;stroke:url(#linearGradient2447);fill:none;stroke-opacity:1;fill-opacity:1"
       points="-350.00,-256.20 -324.77,-269.42 -300.99,-280.93 -278.61,-290.81 -257.57,-299.14 -237.81,-305.99 -219.27,-311.47 -201.89,-315.64 -185.62,-318.59 -170.39,-320.41 -156.15,-321.16 -142.83,-320.95 -130.39,-319.84 -118.75,-317.92 -107.87,-315.28 -97.67,-311.99 -88.12,-308.14 -79.13,-303.81 -70.67,-299.08 -62.66,-294.04 -55.05,-288.76 -47.77,-283.33 -40.79,-277.83 -34.02,-272.35 -27.42,-266.96 -20.92,-261.75 -14.47,-256.81 -8.00,-252.20 -1.47,-248.02 5.20,-244.35 12.05,-241.26 19.15,-238.85 26.56,-237.19 34.33,-236.37 42.52,-236.47 51.20,-237.57 60.42,-239.75 70.24,-243.09 80.71,-247.69 91.91,-253.61 103.88,-260.95 116.68,-269.78 130.38,-280.19 145.03,-292.26 160.69,-306.07 177.42,-321.70 195.28,-339.24 214.33,-358.77 234.62,-380.36 256.22,-404.12" />
  </g>
</svg>
