<?xml version="1.0" encoding="UTF-8" standalone="no"?>
<svg
   xmlns:dc="http://purl.org/dc/elements/1.1/"
   xmlns:cc="http://creativecommons.org/ns#"
   xmlns:rdf="http://www.w3.org/1999/02/22-rdf-syntax-ns#"
   xmlns:svg="http://www.w3.org/2000/svg"
   xmlns="http://www.w3.org/2000/svg"
   xmlns:xlink="http://www.w3.org/1999/xlink"
   xmlns:sodipodi="http://sodipodi.sourceforge.net/DTD/sodipodi-0.dtd"
   xmlns:inkscape="http://www.inkscape.org/namespaces/inkscape"
   viewBox="0 0 44 41"
   version="1.1"
   id="svg57"
   sodipodi:docname="ValanaInbox.svg"
   inkscape:version="0.92.4 (5da689c313, 2019-01-14)">
  <metadata
     id="metadata63">
    <rdf:RDF>
      <cc:Work
         rdf:about="">
        <dc:format>image/svg+xml</dc:format>
        <dc:type
           rdf:resource="http://purl.org/dc/dcmitype/StillImage" />
        <dc:title></dc:title>
      </cc:Work>
    </rdf:RDF>
  </metadata>
  <defs
     id="defs61">
    <linearGradient
       inkscape:collect="always"
       id="linearGradient880">
      <stop
         style="stop-color:#55ff99;stop-opacity:1"
         offset="0"
         id="stop876" />
      <stop
         style="stop-color:#5599ff;stop-opacity:1"
         offset="1"
         id="stop878" />
    </linearGradient>
    <linearGradient
       inkscape:collect="always"
       xlink:href="#linearGradient880"
       id="linearGradient882"
       x1="6.8630483"
       y1="14.820223"
       x2="37.866799"
       y2="14.820223"
       gradientUnits="userSpaceOnUse" />
  </defs>
  <sodipodi:namedview
     pagecolor="#ffffff"
     bordercolor="#666666"
     borderopacity="1"
     objecttolerance="10"
     gridtolerance="10"
     guidetolerance="10"
     inkscape:pageopacity="0"
     inkscape:pageshadow="2"
     inkscape:window-width="1920"
     inkscape:window-height="1057"
     id="namedview59"
     showgrid="false"
     inkscape:zoom="16.280702"
     inkscape:cx="28.891494"
     inkscape:cy="22.232232"
     inkscape:window-x="1912"
     inkscape:window-y="-8"
     inkscape:window-maximized="1"
     inkscape:current-layer="svg57" />
  <path
     fill="#2A56C6"
     d="M42.8 14.6l-7.7-5.7L23.8.6C23.3.2 22.7 0 22 0s-1.3.2-1.8.6l-19 14c-.6.4-1 1-1.1 1.7-.1.2-.1.5-.1.7h44c0-1-.5-1.9-1.2-2.4z"
     id="path2" />
  <path
     fill="#1C3AA9"
     d="M42.8 14.6l-7.7-5.7L23.8.6C23.3.2 22.7 0 22 0s-1.3.2-1.8.6l-19 14c-.6.4-1 1-1.1 1.7-.1.2-.1.5-.1.7h44c0-1-.5-1.9-1.2-2.4z"
     opacity=".4"
     id="path4" />
  <path
     fill="#FFF"
     fill-opacity=".2"
     d="M1.2 14.8l19-14c.5-.4 1.1-.6 1.8-.6s1.3.2 1.8.6l19 14c.7.5 1.1 1.3 1.2 2.2 0-1-.5-1.9-1.2-2.4l-19-14C23.3.2 22.7 0 22 0s-1.3.2-1.8.6l-19 14c-.2.1-.4.3-.5.5-.4.5-.7 1.2-.7 1.9.1-.9.5-1.7 1.2-2.2z"
     id="path6" />
  <path
     fill="#3B78E7"
     d="M0 17v21c0 1.7 1.3 3 3 3h38c1.7 0 3-1.3 3-3V17H0z"
     id="path8" />
  <path
     fill="#3367D6"
     d="M0 17v21c0 1.7 1.3 3 3 3h38c1.7 0 3-1.3 3-3V17H0z"
     opacity=".4"
     id="path10" />
  <linearGradient
     id="a"
     x1="11498.8184"
     x2="11532.6172"
     y1="8522.3193"
     y2="8556.1172"
     gradientTransform="matrix(.25 0 0 .25 -2845.5 -2115.5)"
     gradientUnits="userSpaceOnUse">
    <stop
       offset="0"
       stop-color="#1c3aa9"
       stop-opacity=".2"
       id="stop12" />
    <stop
       offset="1"
       stop-color="#1c3aa9"
       stop-opacity=".02"
       id="stop14" />
  </linearGradient>
  <path
     fill="url(#a)"
     d="M42.8 14.6l-7.7-5.7L22 17v5l19 19c1.7 0 3-1.3 3-3V17c0-1-.5-1.9-1.2-2.4z"
     id="path17" />
  <linearGradient
     id="b"
     x1="11514"
     x2="11514"
     y1="8497.5996"
     y2="8530.8398"
     gradientTransform="matrix(.25 0 0 .25 -2845.5 -2115.5)"
     gradientUnits="userSpaceOnUse">
    <stop
       offset="0"
       stop-color="#1c3aa9"
       stop-opacity=".2"
       id="stop19" />
    <stop
       offset="1"
       stop-color="#1c3aa9"
       stop-opacity=".02"
       id="stop21" />
  </linearGradient>
  <path
     fill="url(#b)"
     d="M42.8 14.6l-7.7-5.7L22 17v5l19 19c1.7 0 3-1.3 3-3V17c0-1-.5-1.9-1.2-2.4z"
     id="path24" />
  <path
     fill="#FFF"
     fill-opacity=".05"
     d="M0 17h44v.2H0z"
     id="path26" />
  <path
     fill="#1A237E"
     fill-opacity=".05"
     d="M44 17v-.2H0v.2h44z"
     id="path28" />
  <rect
     style="opacity:1;fill:#ffffff;fill-opacity:1;stroke:#5599ff;stroke-width:0;stroke-linejoin:round;stroke-miterlimit:4;stroke-dasharray:none;stroke-opacity:1"
     id="rect870"
     width="34.519394"
     height="19.532328"
     x="4.7909484"
     y="11.148708"
     ry="2.5183189" />
  <path
     fill="#03A9F4"
     d="M0 38c0 1.7 1.3 3 3 3h38L0 17v21z"
     id="path30" />
  <path
     fill="#1A237E"
     fill-opacity=".1"
     d="M41 40.8L.4 17H0l40.6 23.8z"
     id="path32" />
  <path
     fill="#4FC3F7"
     d="M3 41h38c1.7 0 3-1.3 3-3V17L3 41z"
     id="path34" />
  <path
     fill="#262626"
     fill-opacity=".2"
     d="M41 40.8H3c-1.7 0-3-1.3-3-3v.2c0 1.7 1.3 3 3 3h38c1.7 0 3-1.3 3-3v-.2c0 1.6-1.3 3-3 3z"
     id="path36" />
  <path
     fill="#FFF"
     fill-opacity=".1"
     d="M44 17L3 41h.4L44 17.2z"
     id="path46" />
  <path
     fill="#1A237E"
     fill-opacity=".1"
     d="M21.8 29.8l.2.1L44 17h-.4z"
     id="path48" />
  <radialGradient
     id="c"
     cx="11417.4297"
     cy="8497.4131"
     r="185.7808"
     gradientTransform="matrix(.25 0 0 .25 -2845.5 -2115.5)"
     gradientUnits="userSpaceOnUse">
    <stop
       offset="0"
       stop-color="#fff"
       stop-opacity=".1"
       id="stop50" />
    <stop
       offset="1"
       stop-color="#fff"
       stop-opacity="0"
       id="stop52" />
  </radialGradient>
  <text
     xml:space="preserve"
     style="font-style:normal;font-variant:normal;font-weight:normal;font-stretch:normal;font-size:3.55222416px;line-height:1.25;font-family:sans-serif;-inkscape-font-specification:sans-serif;letter-spacing:0px;word-spacing:0px;fill:url(#linearGradient882);fill-opacity:1;stroke:none;stroke-width:0.66604203"
     x="6.6284199"
     y="15.749907"
     id="text874"><tspan
       sodipodi:role="line"
       id="tspan872"
       x="6.6284199"
       y="15.749907"
       style="font-style:normal;font-variant:normal;font-weight:600;font-stretch:normal;font-family:Inter;-inkscape-font-specification:'Inter Semi-Bold';fill:url(#linearGradient882);fill-opacity:1;stroke-width:0.66604203">hello@valana.com</tspan></text>
</svg>
